<?xml version="1.0" encoding="UTF-8" standalone="no"?>
<!-- Created with Inkscape (http://www.inkscape.org/) -->

<svg
   xmlns:dc="http://purl.org/dc/elements/1.1/"
   xmlns:cc="http://creativecommons.org/ns#"
   xmlns:rdf="http://www.w3.org/1999/02/22-rdf-syntax-ns#"
   xmlns:svg="http://www.w3.org/2000/svg"
   xmlns="http://www.w3.org/2000/svg"
   version="1.1"
   width="535.44873"
   height="17.678959"
   id="svg2"
   xml:space="preserve"><metadata
     id="metadata8"><rdf:RDF><cc:Work
         rdf:about=""><dc:format>image/svg+xml</dc:format><dc:type
           rdf:resource="http://purl.org/dc/dcmitype/StillImage" /><dc:title></dc:title></cc:Work></rdf:RDF></metadata><defs
     id="defs6" /><g
     transform="matrix(1.25,0,0,-1.25,-139.77625,1640.0552)"
     id="g10"><g
       id="g12" /><path
       d="m 292.8125,0 c -10.00299,0.18444214 -20.00937,4.0367187 -27.78125,7.34375 l -3.375,1.4375 c -7.55125,3.21 -15.86375,7.21375 -24.84375,6.5625 -10.61625,-0.7725 -12,-4.16 -12,-7.03125 0,-0.8275 0.315,-1.555 0.96875,-2.1875 1.74375,-1.69125 5.73375,-2.6425 10.375,-2.5 5.6375,0.17 9.82125,1.7875 9.875,1.8125 0.53625,0.26125 1.2075,0.03625 1.46875,-0.5 C 247.75875,4.4 247.53625,3.76125 247,3.5 246.76,3.385 242.32875,1.655 236.21875,1.46875 230.9325,1.3075 226.4625,2.48 224.28125,4.59375 c -1.0825,1.05 -1.625,2.2925 -1.625,3.71875 0,5.57625 4.43,8.49375 13.96875,9.1875 9.5025,0.69125 17.5575,-2.7175 25.34375,-6.03125 l 3.375,-1.4375 c 8.10375,-3.45 19.22375,-8.1725 29.40625,-7.84375 9.3025,0.2975 14.625,2.72125 14.625,6.65625 0,3.45 -3.29875,5.46625 -9.8125,5.96875 -6.54625,0.5025 -12.225,-3.36875 -12.28125,-3.40625 -0.49125,-0.34375 -1.16125,-0.24 -1.5,0.25 -0.3425,0.48875 -0.24,1.15875 0.25,1.5 0.255,0.17875 6.355,4.375 13.6875,3.8125 9.765,-0.75375 11.8125,-4.83875 11.8125,-8.125 0,-3.095 -2.16,-8.34125 -16.71875,-8.8125 -0.66617,-0.0215625 -1.33313,-0.04354614 -2,-0.03125 z M 268.375,1.53125 c -5.18113,0.143042 -7.57828,2.819375 -15.625,5.34375 -8.30125,2.605 -11.53125,0.90625 -11.53125,0.90625 1.26375,1.2625 5.37625,2.59125 13.71875,-0.1875 6.49,-2.1625 15.84375,-5.9375 15.84375,-5.9375 -0.87891,-0.09 -1.66609,-0.1454346 -2.40625,-0.125 z M 194.71875,2.3125 c 0,0 -15.85875,3.3625 -45.1875,3.84375 l -148.4375,0 C 0.49875,6.15625 0,6.62125 0,7.21875 0,7.815 0.49875,8.3125 1.09375,8.3125 l 148.6875,0 c 0.72,0.02875 35.41125,1.49875 43.5,5.78125 0,-0.0013 7.91375,-5.53125 12,-5.53125 l 2.53125,0 c 0.0775,3.06375 2.9925,5.53125 6.59375,5.53125 3.6525,0 6.625,-2.53625 6.625,-5.65625 0,-3.12 -2.9725,-5.65625 -6.625,-5.65625 -3.205,0 -5.8625,1.9425 -6.46875,4.53125 -3.27875,-0.15875 -10.07375,-1.01375 -13.21875,-5 z m 146.03125,0 c -3.1475,3.98625 -9.96875,4.84125 -13.25,5 -0.605,-2.58875 -3.26375,-4.53125 -6.46875,-4.53125 -3.65,0 -6.625,2.53625 -6.625,5.65625 0,3.12 2.975,5.65625 6.625,5.65625 3.605,0 6.5175,-2.4675 6.59375,-5.53125 l 2.53125,0 c 4.0875,0 12.03125,5.53125 12.03125,5.53125 8.08625,-4.2825 42.7775,-5.7525 43.5,-5.78125 l 148.6875,0 c 0.595,0 1.0625,-0.4975 1.0625,-1.09375 0,-0.5975 -0.4675,-1.0625 -1.0625,-1.0625 l -148.4375,0 C 356.6125,5.675 340.75,2.3125 340.75,2.3125 z M 193.03125,3.75 c 1.4425,1.6825 6.71875,4.09375 6.71875,4.09375 -2.1625,0.72 -7.4375,4.0625 -7.4375,4.0625 C 184.86125,8.3025 165.625,7.34375 165.625,7.34375 178.1225,7.1025 193.03125,3.75 193.03125,3.75 z m 149.40625,0 c 0,0 14.90625,3.3525 27.40625,3.59375 0,0 -19.23625,0.95875 -26.6875,4.5625 0,0 -5.305,-3.3425 -7.46875,-4.0625 0,0 5.30875,-2.41125 6.75,-4.09375 z m -128.375,0.71875 c 1.9875,0 3.59375,1.6625 3.59375,3.71875 0,2.0575 -1.60625,3.71875 -3.59375,3.71875 -1.9875,0 -3.59375,-1.66125 -3.59375,-3.71875 0,-2.05625 1.60625,-3.71875 3.59375,-3.71875 z m 107.34375,0 c 1.98625,0 3.59375,1.6625 3.59375,3.71875 0,2.0575 -1.6075,3.71875 -3.59375,3.71875 -1.9875,0 -3.59375,-1.66125 -3.59375,-3.71875 0,-2.05625 1.60625,-3.71875 3.59375,-3.71875 z m -35.15625,3.25 c -4.65806,0.1274536 -10.17422,1.871875 -14.96875,3.96875 -7.69125,3.36625 -14.90625,5.75 -14.90625,5.75 4.3275,1.44375 14.26875,-4.1625 24.5,-7.1875 7.80609,-2.3078125 11.20767,-1.3414087 12.1875,-0.90625 -1.78174,-1.1998724 -4.14738,-1.6979229 -6.8125,-1.625 z"
       transform="matrix(0.8,0,0,-0.8,111.821,1312.0442)"
       id="path68"
       style="fill:#000000;fill-opacity:1;fill-rule:nonzero;stroke:none" /></g></svg>