<?xml version="1.0" encoding="UTF-8" standalone="no"?>
<!-- Created with Inkscape (http://www.inkscape.org/) -->

<svg
   xmlns:dc="http://purl.org/dc/elements/1.1/"
   xmlns:cc="http://creativecommons.org/ns#"
   xmlns:rdf="http://www.w3.org/1999/02/22-rdf-syntax-ns#"
   xmlns:svg="http://www.w3.org/2000/svg"
   xmlns="http://www.w3.org/2000/svg"
   xmlns:sodipodi="http://sodipodi.sourceforge.net/DTD/sodipodi-0.dtd"
   xmlns:inkscape="http://www.inkscape.org/namespaces/inkscape"
   id="svg3039"
   version="1.1"
   inkscape:version="0.48.2 r9819"
   width="428"
   height="470"
   sodipodi:docname="wazapoo.svg">
  <metadata
     id="metadata3045">
    <rdf:RDF>
      <cc:Work
         rdf:about="">
        <dc:format>image/svg+xml</dc:format>
        <dc:type
           rdf:resource="http://purl.org/dc/dcmitype/StillImage" />
        <dc:title></dc:title>
      </cc:Work>
    </rdf:RDF>
  </metadata>
  <defs
     id="defs3043" />
  <sodipodi:namedview
     pagecolor="#ffffff"
     bordercolor="#666666"
     borderopacity="1"
     objecttolerance="10"
     gridtolerance="10"
     guidetolerance="10"
     inkscape:pageopacity="0"
     inkscape:pageshadow="2"
     inkscape:window-width="1324"
     inkscape:window-height="785"
     id="namedview3041"
     showgrid="false"
     inkscape:zoom="0.69680851"
     inkscape:cx="-271.4574"
     inkscape:cy="341.60535"
     inkscape:window-x="83"
     inkscape:window-y="57"
     inkscape:window-maximized="0"
     inkscape:current-layer="svg3039" />
  <rect
     style="fill:#f2ede0;fill-opacity:1;stroke:none"
     id="rect2993"
     width="302.80917"
     height="302.80917"
     x="-612.79388"
     y="35.160305"
     inkscape:export-filename="/Users/william/Dropbox/web/andre/bg.png"
     inkscape:export-xdpi="118.88676"
     inkscape:export-ydpi="118.88676" />
  <path
     style="fill:#000000"
     d="m 285.43645,84.298173 c -3.20971,0.360167 -4.25539,1.904524 -4.86395,6.082777 -0.91194,6.261395 -1.10708,6.584573 -4.38241,6.805292 -1.74652,0.117678 -4.82867,0.682608 -6.87282,1.288003 -3.53103,1.045733 -3.81195,0.972699 -5.49985,-1.924784 -0.97714,-1.677376 -2.75966,-4.003214 -3.93971,-5.148775 -2.02797,-1.968682 -2.33992,-1.980131 -5.59551,-0.385065 -5.45628,2.673279 -5.82827,3.309485 -4.65646,7.980017 0.57702,2.299852 1.39231,4.892482 1.78414,5.747402 0.50574,1.10346 -0.87121,2.89731 -4.70238,6.16702 l -5.39031,4.6116 -3.7399,-1.811 c -6.95338,-3.30936 -7.78801,-3.1973 -10.53374,1.31932 -2.97927,4.90077 -2.46736,7.0355 2.61509,10.73792 l 3.59943,2.60206 -2.31987,6.74443 -2.35106,6.7463 -5.68239,0.77845 c -3.1316,0.41705 -5.92716,1.02112 -6.21213,1.34237 -0.28496,0.32127 -0.65425,2.86749 -0.81805,5.68405 l -0.2883,5.12012 6.12131,1.32408 c 6.01805,1.2914 6.12616,1.36887 6.98983,5.37316 0.48286,2.23873 1.21014,5.45412 1.61675,7.13488 0.64987,2.68642 0.37945,3.24054 -2.17358,4.48165 -1.5973,0.7765 -3.87643,2.55206 -5.05332,3.96531 l -2.13152,2.56946 2.45064,4.33005 c 2.70593,4.8144 3.87588,5.11093 10.16513,2.45945 3.95834,-1.66879 3.99003,-1.66729 6.62415,1.35659 1.45159,1.66636 3.62121,4.01216 4.82063,5.22126 l 2.16767,2.21818 -2.1605,4.7 c -2.92169,6.3892 -2.61589,7.74788 2.26075,10.5713 l 4.18278,2.41061 2.83833,-2.26742 c 1.55729,-1.25563 3.24819,-3.16926 3.75195,-4.26307 1.17353,-2.54803 2.04924,-2.56864 9.35507,-0.0905 l 6.03948,2.04901 0.62435,5.72292 c 0.36322,3.41086 1.15823,5.99934 1.98306,6.45553 0.75883,0.41969 3.2573,0.64226 5.57179,0.51171 4.67803,-0.26301 5.65459,-1.42388 6.62356,-8.06647 0.54262,-3.71985 0.72666,-3.89397 5.50574,-4.77504 2.72059,-0.50157 5.85197,-1.26976 6.97332,-1.70099 1.62045,-0.62316 2.31605,-0.20006 3.40984,2.0499 0.7569,1.55698 2.67079,3.88765 4.22233,5.16316 l 2.79903,2.30561 4.2514,-2.19548 c 4.2111,-2.19603 4.23771,-2.2558 3.40848,-6.34001 -0.45977,-2.2645 -1.1402,-5.22245 -1.52075,-6.57713 -0.57349,-2.04148 -0.015,-3.01798 3.28986,-5.70679 2.19303,-1.78424 4.50283,-3.68248 5.13196,-4.22046 0.73963,-0.63246 3.10642,-0.15551 6.68841,1.38404 l 5.52786,2.39269 3.02197,-3.90631 c 1.66216,-2.1472 2.98736,-4.48442 2.94354,-5.21647 -0.0438,-0.73205 -1.93924,-2.99029 -4.21299,-5.00719 l -4.1327,-3.66584 1.92928,-6.47061 1.89809,-6.46873 6.07857,-0.9587 c 3.34623,-0.53053 6.23813,-1.15446 6.42863,-1.38664 0.1905,-0.23219 0.52641,-2.72277 0.7338,-5.52247 0.35192,-4.75048 0.19282,-5.15437 -2.179,-6.06813 -1.39783,-0.53853 -4.13499,-1.17185 -6.09572,-1.41952 -3.81138,-0.48146 -3.95284,-0.71865 -5.80382,-10.14005 -0.84877,-4.32026 -0.77227,-4.5314 2.54943,-6.57034 1.88419,-1.15656 4.10482,-2.93034 4.92855,-3.95784 1.37949,-1.72072 1.32846,-2.2396 -0.78648,-6.33933 -1.9628,-3.80481 -2.71337,-4.41074 -5.104,-4.20251 -1.53817,0.13395 -4.30195,0.91581 -6.15853,1.71483 l -3.38785,1.45505 -4.61534,-5.4527 -4.64653,-5.45082 2.23409,-4.51658 c 1.22459,-2.47459 2.16943,-5.15759 2.11514,-5.980816 -0.0873,-1.324224 -7.19716,-6.581683 -8.77834,-6.487027 -0.33631,0.02013 -2.50772,1.998205 -4.80882,4.388955 l -4.18494,4.351608 -6.42128,-2.151377 c -6.29949,-2.103279 -6.46216,-2.241705 -6.77763,-6.011982 -0.66072,-7.896408 -1.40939,-8.930868 -6.67801,-9.054621 -0.9962,-0.02341 -1.85401,-0.0217 -2.59471,0.06146 z m -4.16706,19.815667 c 12.01213,-0.83399 24.54295,2.79006 35.06779,12.11359 11.1038,9.8364 16.36444,21.65031 16.3132,36.65317 -0.016,4.68433 -0.6772,10.80978 -1.47045,13.61219 -1.8894,6.67485 -7.33524,15.80061 -12.40551,20.77846 -5.10395,5.0109 -16.01639,11.11977 -22.95983,12.86375 -15.44454,3.87918 -31.31217,-0.0534 -43.47472,-10.82767 -10.67567,-9.45715 -15.8507,-20.1927 -16.57867,-34.28933 -1.48449,-28.74611 20.91192,-49.19648 45.50819,-50.90416 z m 1.32785,2.83196 c -15.27674,0.57093 -29.97178,8.77289 -38.26062,23.45326 -6.47567,11.46907 -7.52686,26.09397 -2.75467,38.70253 5.7783,15.26682 20.26879,26.91823 36.0818,29.05201 21.27768,2.87116 40.92863,-8.5319 48.95207,-28.41351 2.80445,-6.94929 3.1627,-8.99562 3.05189,-17.5262 -0.10512,-8.0926 -0.55902,-10.69852 -2.71233,-16.0228 -3.29596,-8.14957 -7.92111,-14.53017 -14.05461,-19.31966 -9.12219,-7.12327 -19.85102,-10.31627 -30.30353,-9.92563 z m 0.48859,26.98778 c 2.76307,-0.14277 5.6631,0.33576 8.5438,1.52342 13.09023,5.39683 15.23876,24.51196 3.67647,32.65115 -10.51218,7.39997 -24.98698,2.48737 -29.07949,-9.87368 -3.93166,-11.87519 4.58236,-22.90315 15.67571,-24.19873 0.38826,-0.0454 0.78878,-0.0818 1.18351,-0.10211 z"
     id="path3113"
     inkscape:connector-curvature="0" />
  <path
     style="fill:#000000"
     d="m 150.42963,113.66412 c -1.6328,0.009 -3.0615,0.23047 -3.6875,0.75 -0.82103,0.6814 -2.04467,3.92391 -2.71875,7.1875 l -1.21875,5.9375 -5.875,-0.3125 -5.84375,-0.28125 -1.8125,-5.3125 c -2.43086,-7.19676 -2.76726,-7.44828 -8.9375,-6.125 l -5.25,1.125 0.25,7.125 0.21875,7.125 -5.28125,2.3125 c -2.91301,1.27667 -5.3917,2.18923 -5.5,2.03125 -0.1083,-0.15798 -1.24227,-2.00316 -2.5,-4.09375 -1.25773,-2.09058 -3.313252,-4.47348 -4.593752,-5.3125 -2.15775,-1.41381 -2.68515,-1.34873 -6.906251,1.125 -5.07652,2.97504 -5.21264,4.243 -1.4375,11.78125 1.04138,2.07944 1.875,3.93319 1.875,4.125 0,0.19181 -2.01313,2.02469 -4.5,4.0625 l -4.53125,3.6875 -3.5,-3.0625 c -5.416219,-4.75551 -7.962079,-4.97525 -12.031249,-1.03125 -1.88545,1.82744 -3.4375,3.86353 -3.4375,4.53125 0,0.66772 1.81249,3.50556 4.03125,6.3125 l 4.0625,5.125 -2.65625,4.46875 c -1.44602,2.46745 -2.92101,4.506 -3.28125,4.5 -0.36023,-0.006 -2.86258,-0.68096 -5.5625,-1.5 -7.489151,-2.27192 -8.253531,-2.06355 -10.562501,3.15625 l -2.0625,4.6875 2.28125,2.40625 c 1.24717,1.33676 3.93384,3.30018 5.968751,4.34375 3.37363,1.73013 3.6032,2.14389 2.8125,4.65625 -0.47693,1.51541 -1.12221,3.92486 -1.4375,5.375 -0.5416,2.49092 -0.9599,2.65993 -7.531251,3.03125 -3.82565,0.21617 -7.14366,0.61631 -7.375,0.875 -0.23134,0.25869 -0.653571,2.63934 -0.937501,5.28125 -0.45019,4.18885 -0.2151,4.99367 1.750001,6.28125 1.23939,0.81208 4.22087,1.80834 6.625,2.21875 4.33881,0.74069 4.36035,0.78174 5.09375,5.71875 0.40637,2.73558 0.56105,5.45209 0.34375,6.0625 -0.2173,0.61041 -2.33441,1.65179 -4.71875,2.28125 -6.95604,1.83638 -8.19287,3.25448 -7.40625,8.5 0.91742,6.1178 2.34103,7.03931 9.59375,6.28125 l 5.968751,-0.625 1.375,3.3125 c 3.00491,7.19177 3.01819,7.27297 -1.46875,10.3125 -6.275531,4.25115 -6.723101,5.42995 -4.062501,10.90625 2.143021,4.411 2.431741,4.63615 5.468751,4.03125 1.76357,-0.35125 4.88191,-1.48471 6.9375,-2.5 l 3.75,-1.84375 3.625,4.4375 3.624999,4.4375 -2.937499,4.1875 c -4.6785,6.62199 -4.77436,7.57856 -1.125,11.34375 1.776119,1.83249 4.026849,3.34375 5.031249,3.34375 1.00439,0 3.85792,-1.86245 6.3125,-4.125 l 4.4375,-4.09375 4.96875,3.15625 4.937501,3.1875 -1.4375,4.0625 c -0.78862,2.23516 -1.4375,5.50893 -1.4375,7.28125 0,2.80348 0.53896,3.45952 4.093752,5.0625 5.38718,2.42928 6.78259,1.52143 12.46875,-8.09375 0.99717,-1.68619 1.40892,-1.70215 6.5,-0.28125 l 5.4375,1.53125 -0.3125,4.40625 c -0.41695,5.76854 1.12393,9.63171 4.03125,10.1875 5.96109,1.13957 7.73244,0.75075 9.15625,-2.03125 0.77409,-1.5125 1.70537,-4.6625 2.09375,-7 l 0.71875,-4.25 5.90625,0 c 5.60188,0 5.90295,0.13587 6.53125,2.75 0.36352,1.5125 1.51874,4.44791 2.5625,6.53125 1.8099,3.61254 2.08639,3.76351 5.625,3.125 7.1143,-1.28371 7.50434,-1.82692 6.96875,-9.3125 l -0.46875,-6.6875 5.375,-2.125 5.40625,-2.125 2.4375,3.90625 c 1.35311,2.14347 3.58367,4.61293 4.9375,5.5 2.31152,1.51456 2.70437,1.47702 6.5,-0.65625 4.72273,-2.65432 5.12669,-4.95952 2.03125,-11.78125 -1.08792,-2.39757 -2,-4.47632 -2,-4.625 0,-0.14869 2.01931,-1.89911 4.46875,-3.90625 l 4.4375,-3.65625 4.625,3.53125 c 2.54269,1.94088 5.43661,3.53125 6.4375,3.53125 1.0009,0 3.22486,-1.61191 4.9375,-3.5625 3.57701,-4.07399 3.3098,-5.38352 -2.46875,-11.4375 l -3.375,-3.53125 3.09375,-4.71875 c 1.69662,-2.60821 3.37134,-4.758 3.71875,-4.75 0.34741,0.008 2.425,0.67618 4.625,1.46875 7.15409,2.57736 8.82159,2.10125 11.40625,-3.21875 l 2.3125,-4.71875 -3.78125,-3.28125 c -2.07378,-1.79265 -4.24789,-3.27325 -4.84375,-3.28125 -3.30439,-0.0467 -3.75878,-1.58499 -2.09375,-7.3125 l 1.65625,-5.65625 5.71875,0 c 7.81581,0 9.33263,-1.27402 8.9375,-7.53125 -0.30543,-4.83664 -0.41738,-4.99261 -4.3125,-6.1875 -2.2,-0.67488 -5.1407,-1.47467 -6.5625,-1.75 -2.39936,-0.46464 -2.61529,-0.9102 -2.8125,-6.375 -0.21128,-5.85502 -0.20372,-5.87801 2.90625,-6.5 1.72007,-0.34402 4.72564,-1.39636 6.65625,-2.3125 3.44861,-1.63647 3.48414,-1.73729 2.8125,-6.25 -1.02371,-6.87831 -1.80973,-7.42327 -9.59375,-6.65625 l -6.65625,0.65625 -0.65625,-3.5625 c -0.36615,-1.95178 -1.09993,-3.53125 -1.625,-3.53125 -2.07928,0 -0.80785,-4.04849 1.78125,-5.65625 7.8394,-4.86803 8.8425,-7.59348 4.71875,-13 -3.03101,-3.97386 -4.32018,-4.09136 -11.09375,-0.9375 l -5.15625,2.40625 -3.09375,-4.3125 c -3.54393,-4.93484 -3.71,-5.7543 -1.53125,-7.5625 0.8652,-0.71805 2.45817,-3.08534 3.5625,-5.25 l 2.03125,-3.9375 -3.28125,-3.375 c -1.80243,-1.85963 -4.18704,-3.375 -5.28125,-3.375 -1.09421,0 -4.08683,1.77094 -6.65625,3.9375 l -4.6875,3.9375 -3.875,-2.59375 c -5.63737,-3.73534 -5.56656,-3.58881 -3.90625,-7.5625 0.83762,-2.00471 1.5,-5.21081 1.5,-7.09375 0,-3.06359 -0.40245,-3.5918 -4,-5.03125 -2.21113,-0.88472 -4.49725,-1.59375 -5.0625,-1.59375 -1.41703,0 -5.5858,4.91684 -7,8.25 -1.3317,3.1387 -1.78186,3.21481 -7.9375,1.375 l -4.5,-1.34375 -0.0937,-6.21875 c -0.0649,-3.4143 -0.60023,-6.66273 -1.15625,-7.21875 -1.03546,-1.03546 -4.30992,-1.64077 -7.03125,-1.625 z m 4.65625,34.78125 c 3.96829,0 13.36659,3.40929 20.53125,7.4375 6.62973,3.72744 17.59375,13.57494 17.59375,15.8125 0,2.01088 -4.91329,6.08688 -12.5,10.34375 -1.1,0.6172 -6.78305,3.85928 -12.65625,7.21875 -12.89135,7.37386 -15.25739,8.13273 -16.75,5.34375 -1.42514,-2.66288 -1.48198,-41.56642 -0.0625,-44.21875 0.64619,-1.20742 2.09076,-1.9375 3.84375,-1.9375 z m -26.46875,0.5625 c 2.96663,-0.008 3.10116,0.47242 3.84375,3.9375 0.4715,2.2 0.72609,12.44778 0.5625,22.78125 -0.24355,15.38443 -0.58424,18.97492 -1.8125,19.75 -0.825,0.52061 -1.94225,0.9295 -2.5,0.9375 -1.00802,0.0152 -23.96192,-12.93059 -32.843752,-18.53125 -2.556021,-1.61177 -4.925231,-3.76629 -5.250001,-4.78125 -0.88234,-2.75748 4.159511,-8.37655 12.812503,-14.28125 8.85012,-6.03924 17.54295,-9.63531 23.71875,-9.78125 0.54949,-0.013 1.04495,-0.0301 1.46875,-0.0312 z m 73.21875,41.4375 c 4.54869,0 6.88575,8.17935 6.84375,24 -0.0339,12.74616 -1.29332,19.66831 -4.0625,22.4375 -0.84976,0.84975 -2.09079,1.5625 -2.75,1.5625 -1.24357,0 -31.0655,-16.7661 -35.90625,-20.1875 -1.5125,-1.06902 -2.75,-2.7874 -2.75,-3.8125 0,-1.0251 1.2375,-2.74963 2.75,-3.8125 5.05321,-3.55103 34.62323,-20.1875 35.875,-20.1875 z m -121.125003,0.4375 c 5.01658,0.25456 37.997373,19.38937 39.093753,22.84375 0.89042,2.80546 -0.4488,3.81156 -20.875002,15.46875 -8.910551,5.08524 -16.726781,9.248 -17.375001,9.25 -1.87153,0.007 -4.05927,-2.67965 -5.5,-6.75 -2.118969,-5.98655 -1.812719,-29.55627 0.46875,-35.46875 1.06772,-2.76703 2.6486,-4.94309 3.8125,-5.3125 0.101636,-0.0323 0.213175,-0.0395 0.375,-0.0312 z m 61.031253,12.96875 c 1.80098,0.0285 3.65812,0.55777 5.46875,1.78125 6.56237,4.43435 6.61133,13.13905 0.0937,17.53125 -5.16301,3.47935 -10.04077,2.67264 -13.9375,-2.28125 -5.87533,-7.46928 0.57076,-17.15473 8.375,-17.03125 z m 11.375,28.8125 c 0.12654,-0.0144 0.25876,-0.007 0.40625,0 0.39331,0.018 0.88501,0.10605 1.46875,0.25 3.58188,0.88332 33.03505,18.00927 36.0625,20.96875 2.21855,2.16874 2.26118,2.44856 0.8125,5.25 -3.02627,5.85216 -17.20367,15.62512 -27.9375,19.25 -7.72679,2.60937 -11.33993,2.64295 -12.6875,0.125 -1.35205,-2.52625 -1.3492,-40.04508 0,-43.59375 0.56869,-1.49575 0.98925,-2.149 1.875,-2.25 z m -23.625,0.4375 c 2.12448,-0.18158 2.77803,1.13776 3.25,3.65625 0.32914,1.7565 0.45382,11.86028 0.28125,22.46875 -0.25728,15.81656 -0.58248,19.47381 -1.8125,20.25 -4.48571,2.83067 -16.93307,-1.64059 -29.625,-10.625 -6.564062,-4.64659 -11.375003,-9.68599 -11.375003,-11.9375 0,-2.40766 3.89583,-5.1819 21.156253,-15.03125 10.24477,-5.84599 15.39352,-8.54779 18.125,-8.78125 z"
     id="path3089"
     inkscape:connector-curvature="0" />
  <path
     style="fill:#000000"
     d="m 467.59637,151.98736 c -1.8437,0 -4.5267,0.43236 -5.9375,0.96875 -2.35641,0.89591 -2.5625,1.47673 -2.5625,6.9375 l 0,5.9375 -5.125,1.6875 c -4.86246,1.61509 -5.20728,1.63988 -6.125,0 -0.53349,-0.9533 -2.19133,-3.10675 -3.6875,-4.78125 -3.10795,-3.4784 -5.5983,-3.36674 -10.375,0.5 l -2.84375,2.3125 2,5.6875 2,5.6875 -4.125,3.03125 c -4.46929,3.28674 -5.2686,3.53737 -6.21875,2 -0.34478,-0.55786 -2.44724,-1.91961 -4.6875,-3.0625 l -4.09375,-2.09375 -3.46875,3.5 c -4.10843,4.10843 -3.97733,6.63128 0.6875,11.625 l 2.96875,3.15625 -2.6875,4.5 c -2.31561,3.87178 -3.07169,4.43251 -5.21875,3.9375 -9.69672,-2.23557 -9.80385,-2.21609 -12.125,3.03125 l -2.15625,4.84375 3.8125,3.3125 c 2.09342,1.80962 4.46502,3.28125 5.25,3.28125 1.14499,0 1.28688,1.03818 0.71875,5.25 -0.3895,2.8875 -0.89179,5.53145 -1.09375,5.875 -0.20197,0.34355 -2.84049,0.8421 -5.875,1.09375 -3.03452,0.25164 -5.76978,0.67604 -6.0625,0.96875 -0.29271,0.29272 -0.79091,2.83542 -1.125,5.65625 l -0.625,5.125 3.625,1.53125 c 1.9835,0.82875 4.95734,1.5 6.625,1.5 2.74232,0 3.55417,0.8496 3.125,3.3125 -0.0793,0.45491 0.28268,2.31933 0.78125,4.125 0.86363,3.12782 0.74039,3.36189 -2.71875,4.9375 -7.1839,3.27221 -7.70273,4.02899 -6.28125,9.34375 0.69319,2.59178 1.41969,4.88844 1.625,5.09375 0.6432,0.64321 7.89741,0.47647 10.53125,-0.25 2.25357,-0.62157 2.7626,-0.21933 4.8125,4 l 2.28125,4.71875 -2.40625,2.59375 c -1.32053,1.43629 -3.11445,3.70535 -4,5.03125 -1.53663,2.30075 -1.49579,2.58588 1.40625,6.25 3.56178,4.49711 4.90411,4.66791 10.71875,1.34375 l 4.34375,-2.46875 3.875,3.21875 c 4.38514,3.64039 4.48717,3.94102 2.53125,7.03125 -0.77101,1.21815 -1.69685,3.65082 -2.0625,5.40625 -0.60651,2.91182 -0.30526,3.42895 3.34375,5.84375 4.86521,3.21965 7.10481,2.73889 10.84375,-2.34375 1.48988,-2.02532 2.77025,-3.79462 2.84375,-3.9375 0.0735,-0.14288 2.40788,0.65734 5.1875,1.8125 l 5.0625,2.125 -0.53125,5.78125 c -0.58864,6.49156 -0.0377,7.18505 6.90625,8.4375 3.1075,0.56049 3.92465,0.30513 5.28125,-1.625 0.88163,-1.25436 2.05269,-4.00775 2.625,-6.125 0.88834,-3.28646 1.35367,-3.78143 3.21875,-3.28125 1.20156,0.32224 3.63995,0.58575 5.40625,0.59375 2.92883,0.0125 3.30306,0.40527 4.34375,4.28125 0.62761,2.3375 1.55613,5.01853 2.0625,5.96875 0.75149,1.41021 1.79807,1.62071 5.65625,1.125 2.59972,-0.33403 5.16875,-1.02526 5.71875,-1.53125 0.55,-0.50599 1.04865,-3.46849 1.09375,-6.59375 l 0.0937,-5.6875 4.90625,-1.78125 c 4.91657,-1.77823 4.91681,-1.75999 6.40625,0.5 0.81942,1.24335 2.7389,3.51467 4.25,5.0625 l 2.75,2.8125 4.25,-2.53125 c 4.86998,-2.89347 5.50868,-4.8688 3.3125,-10.125 -0.85588,-2.04841 -1.5625,-4.04672 -1.5625,-4.4375 0,-0.39078 1.79741,-2.13007 3.96875,-3.875 l 3.9375,-3.15625 3.625,2.4375 c 6.29237,4.27012 7.50952,4.28604 11.1875,0.0312 1.80751,-2.09098 3.28125,-4.14627 3.28125,-4.5625 0,-0.41624 -1.57827,-2.8477 -3.53125,-5.40625 l -3.5625,-4.65625 2.625,-4.5 c 1.98702,-3.39059 3.05811,-4.33646 4.3125,-3.8125 0.91542,0.38237 3.76646,0.94375 6.34375,1.21875 4.6294,0.49396 4.70488,0.448 6.25,-3.25 0.86021,-2.05876 1.5625,-4.5081 1.5625,-5.4375 0,-1.57282 -4.91428,-6.05945 -6.6875,-6.09375 -2.75685,-0.0534 -3.34725,-1.71691 -2.28125,-6.6875 1.08591,-5.06339 1.09774,-5.07898 5.78125,-5.78125 7.60519,-1.14036 8.34499,-1.84958 8,-7.8125 l -0.3125,-5.1875 -5.65625,-1.5 c -3.11762,-0.82545 -5.87559,-1.725 -6.125,-2 -0.2494,-0.275 -0.75351,-2.59499 -1.125,-5.15625 -0.6698,-4.61798 -0.65314,-4.66843 2.71875,-5.78125 1.87014,-0.6172 4.42579,-2.21947 5.6875,-3.5625 2.28356,-2.43074 2.3011,-2.45949 0.53125,-7.09375 l -1.78125,-4.65625 -6.34375,0.5 -6.34375,0.5 -2.5,-4.40625 -2.46875,-4.4375 3.96875,-4.0625 c 2.1752,-2.2414 3.9455,-4.59757 3.9375,-5.21875 -0.008,-0.62118 -1.55957,-2.925 -3.4375,-5.125 l -3.40625,-4 -5.53125,2.84375 -5.53125,2.84375 -3.9375,-3.3125 -3.96875,-3.3125 1.90625,-3.75 c 3.08434,-6.04582 2.57211,-8.92922 -2.09375,-11.59375 -4.67381,-2.66907 -6.4314,-2.12518 -10.53125,3.25 l -2.625,3.4375 -4.65625,-1.84375 -4.6875,-1.8125 -0.28125,-6.125 c -0.32045,-6.58412 -0.92267,-7.31772 -6.84375,-8.4375 -3.73997,-0.7073 -5.66781,1.02065 -7.6875,6.875 -1.32052,3.82769 -1.5051,3.95551 -6.53125,4.25 -3.59415,0.21059 -5.26781,-0.0936 -5.53125,-1 -0.20823,-0.71646 -1.16265,-3.45 -2.09375,-6.0625 -1.56296,-4.38533 -1.93641,-4.75 -5.03125,-4.75 z m 7.125,29.03125 c 8.16792,-0.0326 9.13843,1.07106 7.4375,8.75 -1.89585,8.55894 -2.12002,8.76143 -10.1875,10.09375 -9.9075,1.63619 -17.75149,6.02134 -24.71875,13.8125 -6.06417,6.78128 -6.59123,6.96113 -14.53125,4.78125 -8.96478,-2.46123 -9.20949,-4.47324 -1.71875,-14.46875 5.51136,-7.35425 12.82849,-13.31999 21.46875,-17.46875 8.55442,-4.10756 14.07958,-5.4674 22.25,-5.5 z m 28.375,6.125 c 0.89618,-0.0983 2.16793,0.46036 4.78125,1.8125 7.46997,3.86499 18.37116,15.4812 22.625,24.125 5.34935,10.86989 8.02897,25.36011 5.5625,29.96875 -1.18434,2.21296 -3.45011,2.30757 -10.25,0.4375 -6.07051,-1.66948 -7.71875,-3.06967 -7.71875,-6.53125 0,-4.53826 -3.71966,-15.23449 -7.0625,-20.28125 -1.71597,-2.59065 -5.32327,-6.37648 -8,-8.4375 -2.67673,-2.06103 -5.07937,-4.43498 -5.375,-5.28125 -0.74193,-2.12379 2.22592,-13.1501 4.03125,-14.96875 0.48939,-0.49301 0.86854,-0.78476 1.40625,-0.84375 z m -25.28125,32.03125 c 0.78362,-0.002 1.5788,0.0307 2.375,0.125 9.31044,1.10268 16.83919,8.62938 18.40625,18.375 1.21527,7.55788 -4.95302,17.68028 -12.625,20.75 -13.01649,5.20816 -27.06784,-3.09115 -28.625,-16.90625 -1.32425,-11.74863 8.71444,-22.31224 20.46875,-22.34375 z m -55.59375,15.125 c 1.40424,-0.0866 3.41299,0.34273 6.1875,1.09375 8.43967,2.28452 8.90276,2.67506 9.34375,7.96875 0.87667,10.52364 5.52166,19.05549 15.03125,27.53125 l 5.71875,5.09375 -1.28125,6.21875 c -0.70728,3.4243 -1.72792,7.02449 -2.25,8 -1.42685,2.66609 -3.93312,2.16168 -10.46875,-2.0625 -5.86219,-3.78892 -16.3477,-14.57195 -16.375,-16.84375 -0.008,-0.64822 -0.59375,-1.77322 -1.28125,-2.5 -3.49234,-3.6919 -6.73039,-14.29269 -7.4375,-24.3125 -0.51579,-7.30881 -0.27683,-9.99693 2.8125,-10.1875 z m 93.625,25.03125 c 1.44453,-0.0704 3.41394,0.41631 7.1875,1.5625 8.32579,2.52888 8.78371,3.76184 4.125,11 -6.73114,10.45807 -19.75696,20.38348 -31.5625,24.03125 -3.30922,1.02251 -8.95168,2.17916 -12.53125,2.5625 -5.54485,0.5938 -6.86239,0.4169 -8.84375,-1.1875 l -2.3125,-1.90625 1.84375,-6.84375 c 1.01789,-3.77106 2.51875,-7.18355 3.34375,-7.59375 0.825,-0.41021 4.39731,-1.28592 7.9375,-1.9375 3.54019,-0.65158 8.68591,-2.309 11.40625,-3.6875 5.33195,-2.70191 14.65625,-10.86329 14.65625,-12.8125 0,-0.6568 1.10943,-1.78923 2.4375,-2.5 0.77162,-0.41296 1.44578,-0.64525 2.3125,-0.6875 z"
     id="path3073"
     inkscape:connector-curvature="0" />
  <path
     style="fill:#000000"
     d="m 328.8416,193.9988 c -0.88993,0.005 -2.10726,0.37361 -4.3125,1.125 l -4.8125,1.65625 0.5625,6.65625 0.5625,6.6875 -3.40625,1.84375 c -1.87096,1.00758 -4.1547,2.65315 -5.0625,3.65625 -1.59246,1.75965 -1.80259,1.71865 -5.78125,-0.5625 -7.12184,-4.08325 -8.0041,-4.05923 -10.96875,0.21875 -1.45737,2.10299 -2.65625,4.52776 -2.65625,5.375 0,0.84725 1.81654,3.33847 4.03125,5.53125 l 4.03125,3.96875 -2,4.4375 c -1.10263,2.43041 -2.01915,5.11445 -2.03125,6 -0.0166,1.21719 -1.39073,1.77851 -5.65625,2.21875 -3.10335,0.3203 -6.02916,0.96666 -6.5,1.4375 -0.47084,0.47085 -0.98669,3.07448 -1.125,5.78125 -0.22325,4.36919 0.0305,5.03292 2.25,6.15625 1.375,0.69593 4.20149,1.27315 6.28125,1.28125 2.18203,0.009 3.91439,0.55995 4.09375,1.28125 0.17096,0.6875 1.07532,3.57738 2,6.4375 l 1.6875,5.21875 -4.59375,4.59375 c -4.30235,4.30235 -4.52125,4.75971 -3.1875,6.8125 0.78488,1.20803 2.04614,3.2 2.8125,4.4375 1.77664,2.86886 4.35994,2.81884 9.5625,-0.15625 l 4.15625,-2.375 5.46875,4.03125 c 5.35367,3.94145 5.47822,4.12101 4.5625,7.4375 -0.5156,1.86733 -0.82668,4.82458 -0.65625,6.5625 0.27658,2.82026 0.83482,3.31961 5.15625,4.65625 4.76849,1.47492 4.87952,1.44817 6.75,-0.96875 1.04457,-1.34974 2.44791,-3.93029 3.125,-5.75 0.97169,-2.61147 1.64934,-3.1801 3.25,-2.75 1.11537,0.29969 4.17613,0.52325 6.78125,0.53125 4.51524,0.013 4.80219,0.21012 6.28125,3.75 0.85336,2.04237 2.31193,4.52922 3.21875,5.53125 0.93264,1.03055 2.30333,1.56114 3.1875,1.21875 0.85971,-0.33292 2.85073,-0.87366 4.40625,-1.1875 3.58889,-0.72407 4.72083,-3.63453 3.625,-9.34375 -0.92417,-4.81486 -1.4381,-3.99882 6.375,-10.03125 l 2.8125,-2.1875 4.1875,2.03125 c 7.70718,3.75881 8.15399,3.71737 11.53125,-0.875 3.4562,-4.69969 3.29754,-5.47235 -2.125,-10.6875 l -3.4375,-3.3125 2.21875,-6.1875 2.25,-6.1875 5.28125,-0.78125 c 6.82986,-0.99078 7.9375,-2.02943 7.9375,-7.40625 0,-4.1082 -0.25175,-4.53084 -3.46875,-5.875 -1.90734,-0.79693 -4.76276,-1.4375 -6.375,-1.4375 -2.74242,0 -3.08262,-0.41452 -4.96875,-6.59375 l -2,-6.625 3.4375,-3.03125 c 5.50565,-4.83402 5.83092,-6.09895 2.65625,-10.6875 -1.52131,-2.19883 -3.499,-4.01038 -4.375,-4.03125 -0.87599,-0.0209 -3.57599,1.02368 -6,2.3125 l -4.40625,2.34375 -5.65625,-3.96875 c -5.33445,-3.74794 -5.57061,-4.12704 -4.65625,-6.75 0.53295,-1.52881 0.79871,-4.50483 0.625,-6.59375 -0.2969,-3.57022 -0.57432,-3.88107 -5,-5.25 -4.59132,-1.42016 -4.75914,-1.38396 -6.71875,0.96875 -1.1052,1.32691 -2.49645,3.75347 -3.0625,5.40625 -1.00959,2.94782 -1.13106,3.005 -7.84375,3 l -6.84375,0 -1.71875,-4.15625 c -0.94385,-2.28006 -2.52595,-4.86849 -3.5,-5.75 -0.81254,-0.73534 -1.36007,-1.09848 -2.25,-1.09375 z m 11.4375,23.625 c 0.6736,-0.0254 1.34569,-0.0223 2.03125,0 8.22669,0.26734 17.21781,3.76891 22.5,9.21875 l 3.3125,3.40625 -6.3125,3.8125 c -3.48111,2.0922 -7.24375,4.37366 -8.34375,5.0625 -1.62409,1.01705 -2.34427,0.97642 -3.875,-0.15625 -1.03676,-0.76716 -3.83128,-1.67322 -6.21875,-2.03125 -4.17262,-0.62572 -4.52622,-0.96051 -8.875,-8.5 -2.48826,-4.31391 -4.53125,-8.02085 -4.53125,-8.25 0,-0.22914 2.043,-0.99083 4.53125,-1.6875 1.79874,-0.50361 3.76046,-0.79881 5.78125,-0.875 z m -19.3125,7.875 c 0.45488,0 2.90486,3.52376 5.4375,7.84375 4.57093,7.79677 4.5924,7.88197 3.09375,11.46875 -0.83037,1.98735 -1.53125,4.91069 -1.53125,6.46875 0,2.33049 -0.75368,3.20861 -4.25,4.96875 -2.3375,1.17677 -6.12229,3.28042 -8.40625,4.6875 l -4.125,2.5625 -1.125,-3.15625 c -1.76148,-5.05297 -1.29913,-15.14707 0.9375,-21.125 1.89836,-5.07383 8.17509,-13.71875 9.96875,-13.71875 z m 51.65625,14 c 1.60006,0 2.6657,5.15309 2.625,12.625 -0.0393,7.21808 -3.58351,16.00724 -8.53125,21.125 -1.72811,1.7875 -3.44462,3.25 -3.8125,3.25 -0.36788,0 -2.75233,-3.59382 -5.3125,-8 -4.51601,-7.7723 -4.59955,-8.11729 -3.125,-10.96875 0.83593,-1.61651 1.5,-4.30487 1.5,-5.96875 0,-2.71578 0.81151,-3.46961 7.75,-7.53125 4.251,-2.48843 8.25095,-4.53125 8.90625,-4.53125 z m -30.78125,5.21875 c 1.26443,-0.056 2.61305,0.38009 3.875,1.46875 3.45608,2.98151 3.74479,5.91146 0.875,8.78125 -3.0347,3.0347 -5.93398,3.22228 -8.625,0.53125 -4.22631,-4.22631 -0.64082,-10.58127 3.875,-10.78125 z m -9.96875,17.65625 4.59375,1.5625 c 2.52713,0.85799 5.44348,1.5625 6.5,1.5625 1.32061,0 3.18368,2.16881 5.96875,6.9375 5.81068,9.94926 5.79478,9.77272 1.375,11 -10.89631,3.02569 -23.82132,-0.55988 -31.65625,-8.75 l -2.8125,-2.9375 8,-4.6875 8.03125,-4.6875 z"
     id="path3061"
     inkscape:connector-curvature="0" />
  <rect
     style="fill:#800000;fill-opacity:1;stroke:none"
     id="rect3124"
     width="711.81677"
     height="167.9084"
     x="30.137411"
     y="-169.34352" />
  <path
     style="fill:#000000"
     d="M -135.625 65.28125 L -135.625 95.40625 L -135.625 116.96875 L -135.625 126.28125 L -135.625 147.09375 L -135.625 156.40625 L -135.625 177.96875 L -135.625 208.09375 L -105.6875 208.09375 C -106.26008 207.57423 -107.17021 207.18729 -108.625 206.625 C -110.77144 205.79538 -113.66388 204.81323 -115.0625 204.4375 C -117.42275 203.8034 -117.59816 203.33999 -117.40625 197.875 C -117.20063 192.01979 -117.17758 191.993 -114.03125 191.59375 C -112.29107 191.37292 -109.24087 190.55778 -107.25 189.78125 C -103.69375 188.39417 -103.65098 188.2678 -104 183.71875 C -104.40874 178.39135 -104.94717 176.82234 -108.71875 176.46875 C -110.85584 175.64629 -113.68247 174.68324 -115.0625 174.3125 C -116.09511 174.03508 -116.71408 173.80145 -117.0625 173.15625 C -117.0685 173.14515 -117.08795 173.1363 -117.09375 173.125 C -117.10695 173.0902 -117.1128 173.0368 -117.125 173 C -117.41883 172.1184 -117.44353 170.65555 -117.40625 168.03125 C -117.40425 167.92498 -117.40725 167.85247 -117.40625 167.75 C -117.40225 167.64387 -117.41025 167.57109 -117.40625 167.46875 C -117.32455 165.16326 -117.2659 163.79022 -117 162.96875 C -116.9853 162.92335 -116.9535 162.88605 -116.9375 162.84375 C -116.53538 162.04821 -115.75615 161.91996 -114.1875 161.6875 C -112.88611 161.49464 -110.84067 160.92976 -109.0625 160.3125 C -109.0062 160.2929 -108.962 160.2696 -108.90625 160.25 C -108.83965 160.2288 -108.78457 160.2089 -108.71875 160.1875 C -108.19848 160.01828 -107.69183 159.82858 -107.25 159.65625 C -103.69375 158.26917 -103.65098 158.1428 -104 153.59375 C -104.28059 149.93662 -104.5993 148.03444 -106 147.09375 L -105.6875 147.09375 C -106.26008 146.57423 -107.17021 146.18729 -108.625 145.625 C -110.77144 144.79538 -113.66388 143.81323 -115.0625 143.4375 C -116.5265 143.04419 -117.15845 142.71504 -117.375 141.21875 C -117.37793 141.19851 -117.37222 141.17692 -117.375 141.15625 C -117.41742 140.33624 -117.42567 139.2732 -117.40625 137.90625 C -117.39803 137.32747 -117.38467 136.84587 -117.375 136.375 C -117.37243 136.25012 -117.37794 136.08658 -117.375 135.96875 C -117.34896 135.27711 -117.28421 134.66877 -117.25 134.15625 C -117.03281 132.03134 -116.41293 131.89229 -114.1875 131.5625 C -112.45232 131.30536 -109.38046 130.38046 -107.40625 129.5625 C -105.16052 128.63204 -104.31756 128.23427 -104.125 126.90625 C -104.12226 126.88733 -104.12749 126.86306 -104.125 126.84375 C -103.76244 126.06967 -103.83188 124.90994 -104 122.71875 C -104.40874 117.39135 -104.94717 115.82234 -108.71875 115.46875 C -110.85584 114.64629 -113.68247 113.68324 -115.0625 113.3125 C -116.09511 113.03508 -116.71408 112.80145 -117.0625 112.15625 C -117.0685 112.14515 -117.08795 112.1363 -117.09375 112.125 C -117.10695 112.0902 -117.1128 112.0368 -117.125 112 C -117.41883 111.1184 -117.44353 109.65555 -117.40625 107.03125 C -117.40425 106.92498 -117.40725 106.85247 -117.40625 106.75 C -117.40225 106.64387 -117.41025 106.57109 -117.40625 106.46875 C -117.32455 104.16326 -117.2659 102.79022 -117 101.96875 C -116.9853 101.92335 -116.9535 101.88605 -116.9375 101.84375 C -116.53538 101.04821 -115.75615 100.91996 -114.1875 100.6875 C -112.88611 100.49464 -110.84067 99.92976 -109.0625 99.3125 C -109.0062 99.29294 -108.962 99.26964 -108.90625 99.25 C -108.83965 99.22877 -108.78457 99.20891 -108.71875 99.1875 C -108.19848 99.01828 -107.69183 98.82858 -107.25 98.65625 C -103.69375 97.26917 -103.65098 97.1428 -104 92.59375 C -104.41723 87.15564 -104.94811 85.62253 -108.9375 85.3125 C -111.03385 84.56568 -113.63083 83.72817 -114.9375 83.40625 C -117.31048 82.82163 -117.48391 82.37406 -117.40625 76.90625 C -117.32305 71.04801 -117.32475 71.02742 -114.1875 70.5625 C -112.45232 70.30536 -109.38046 69.38046 -107.40625 68.5625 C -104.8397 67.49912 -104.12445 67.13902 -104.09375 65.28125 L -135.625 65.28125 z "
     id="path3126" />
  <path
     style="fill:#000000"
     d="M -135.625 185.125 L -135.625 215.25 L -135.625 236.8125 L -135.625 246.125 L -135.625 266.9375 L -135.625 276.25 L -135.625 297.8125 L -135.625 327.9375 L -105.6875 327.9375 C -106.26008 327.41798 -107.17021 327.03104 -108.625 326.46875 C -110.77144 325.63913 -113.66388 324.65698 -115.0625 324.28125 C -117.42275 323.64715 -117.59816 323.18374 -117.40625 317.71875 C -117.20063 311.86354 -117.17758 311.83675 -114.03125 311.4375 C -112.29107 311.21667 -109.24087 310.40153 -107.25 309.625 C -103.69375 308.23792 -103.65098 308.11155 -104 303.5625 C -104.40874 298.2351 -104.94717 296.66609 -108.71875 296.3125 C -110.85584 295.49004 -113.68247 294.52699 -115.0625 294.15625 C -116.09511 293.87883 -116.71408 293.6452 -117.0625 293 C -117.0685 292.9889 -117.08805 292.98005 -117.09375 292.96875 C -117.10695 292.93395 -117.1128 292.88055 -117.125 292.84375 C -117.41883 291.96215 -117.44353 290.4993 -117.40625 287.875 C -117.40425 287.76873 -117.40725 287.69622 -117.40625 287.59375 C -117.40225 287.48762 -117.41025 287.41484 -117.40625 287.3125 C -117.32455 285.00701 -117.2659 283.63397 -117 282.8125 C -116.9853 282.7671 -116.9535 282.7298 -116.9375 282.6875 C -116.53538 281.89196 -115.75615 281.76371 -114.1875 281.53125 C -112.88611 281.33839 -110.84067 280.77351 -109.0625 280.15625 C -109.0062 280.13665 -108.962 280.11335 -108.90625 280.09375 C -108.83965 280.07255 -108.78457 280.05265 -108.71875 280.03125 C -108.19848 279.86203 -107.69183 279.67233 -107.25 279.5 C -103.69375 278.11292 -103.65098 277.98655 -104 273.4375 C -104.28059 269.78037 -104.5993 267.87819 -106 266.9375 L -105.6875 266.9375 C -106.26008 266.41798 -107.17021 266.03104 -108.625 265.46875 C -110.77144 264.63913 -113.66388 263.65698 -115.0625 263.28125 C -116.5265 262.88794 -117.15845 262.55879 -117.375 261.0625 C -117.378 261.0423 -117.372 261.0207 -117.375 261 C -117.4174 260.17999 -117.42575 259.11695 -117.40625 257.75 C -117.39825 257.17122 -117.3846 256.68962 -117.375 256.21875 C -117.372 256.09387 -117.378 255.93033 -117.375 255.8125 C -117.349 255.12086 -117.2842 254.51252 -117.25 254 C -117.03281 251.87509 -116.41293 251.73604 -114.1875 251.40625 C -112.45232 251.14911 -109.38046 250.22421 -107.40625 249.40625 C -105.16052 248.47579 -104.31756 248.07802 -104.125 246.75 C -104.122 246.7311 -104.127 246.7068 -104.125 246.6875 C -103.76244 245.91342 -103.83188 244.75369 -104 242.5625 C -104.40874 237.2351 -104.94717 235.66609 -108.71875 235.3125 C -110.85584 234.49004 -113.68247 233.52699 -115.0625 233.15625 C -116.09511 232.87883 -116.71408 232.6452 -117.0625 232 C -117.0685 231.9889 -117.08805 231.97995 -117.09375 231.96875 C -117.10695 231.93395 -117.1128 231.88055 -117.125 231.84375 C -117.41883 230.96215 -117.44353 229.4993 -117.40625 226.875 C -117.40425 226.76873 -117.40725 226.69622 -117.40625 226.59375 C -117.40225 226.48762 -117.41025 226.41484 -117.40625 226.3125 C -117.32455 224.00701 -117.2659 222.63397 -117 221.8125 C -116.9853 221.7671 -116.9535 221.7298 -116.9375 221.6875 C -116.53538 220.89196 -115.75615 220.76371 -114.1875 220.53125 C -112.88611 220.33839 -110.84067 219.77351 -109.0625 219.15625 C -109.0062 219.13665 -108.962 219.11335 -108.90625 219.09375 C -108.83965 219.07255 -108.78457 219.05265 -108.71875 219.03125 C -108.19848 218.86203 -107.69183 218.67233 -107.25 218.5 C -103.69375 217.11292 -103.65098 216.98655 -104 212.4375 C -104.41723 206.99939 -104.94811 205.46628 -108.9375 205.15625 C -111.03385 204.40943 -113.63083 203.57192 -114.9375 203.25 C -117.31048 202.66538 -117.48391 202.21781 -117.40625 196.75 C -117.32305 190.89176 -117.32475 190.87117 -114.1875 190.40625 C -112.45232 190.14911 -109.38046 189.22421 -107.40625 188.40625 C -104.8397 187.34287 -104.12445 186.98277 -104.09375 185.125 L -135.625 185.125 z "
     id="path3151" />
  <rect
     style="fill:#800000;fill-opacity:1;stroke:none"
     id="rect3154"
     width="166.47328"
     height="387.48093"
     x="-64.580154"
     y="-46.641224" />
  <path
     inkscape:connector-curvature="0"
     id="path2989"
     d="m -456.05892,87.832059 c -1.6328,0.009 -3.0615,0.23047 -3.6875,0.75 -0.82103,0.6814 -2.04467,3.92391 -2.71875,7.1875 l -1.21875,5.937501 -5.875,-0.3125 -5.84375,-0.28125 -1.8125,-5.312501 c -2.43086,-7.19676 -2.76726,-7.44828 -8.9375,-6.125 l -5.25,1.125 0.25,7.125002 0.21875,7.124999 -5.28125,2.3125 c -2.91301,1.27667 -5.3917,2.18923 -5.5,2.03125 -0.1083,-0.15798 -1.24227,-2.00316 -2.5,-4.09375 -1.25773,-2.09058 -3.31325,-4.47348 -4.59375,-5.312499 -2.15775,-1.41381 -2.68515,-1.34873 -6.90625,1.124999 -5.07652,2.97504 -5.21264,4.243 -1.4375,11.78125 1.04138,2.07944 1.875,3.93319 1.875,4.125 0,0.19181 -2.01313,2.02469 -4.5,4.0625 l -4.53125,3.6875 -3.5,-3.0625 c -5.41622,-4.75551 -7.96208,-4.97525 -12.03125,-1.03125 -1.88545,1.82744 -3.4375,3.86353 -3.4375,4.53125 0,0.66772 1.81249,3.50556 4.03125,6.3125 l 4.0625,5.125 -2.65625,4.46875 c -1.44602,2.46745 -2.92101,4.506 -3.28125,4.5 -0.36023,-0.006 -2.86258,-0.68096 -5.5625,-1.5 -7.48915,-2.27192 -8.25353,-2.06355 -10.5625,3.15625 l -2.0625,4.6875 2.28125,2.40625 c 1.24717,1.33676 3.93384,3.30018 5.96875,4.34375 3.37363,1.73013 3.6032,2.14389 2.8125,4.65625 -0.47693,1.51541 -1.12221,3.92486 -1.4375,5.375 -0.5416,2.49092 -0.9599,2.65993 -7.53125,3.03125 -3.82565,0.21617 -7.14366,0.61631 -7.375,0.875 -0.23134,0.25869 -0.65358,2.63934 -0.93751,5.28125 -0.45019,4.18885 -0.2151,4.99367 1.75001,6.28125 1.23939,0.81208 4.22087,1.80834 6.625,2.21875 4.33881,0.74069 4.36035,0.78174 5.09375,5.71875 0.40637,2.73558 0.56105,5.45209 0.34375,6.0625 -0.2173,0.61041 -2.33441,1.65179 -4.71875,2.28125 -6.95604,1.83638 -8.19287,3.25448 -7.40625,8.5 0.91742,6.1178 2.34103,7.03931 9.59375,6.28125 l 5.96875,-0.625 1.375,3.3125 c 3.00491,7.19177 3.01819,7.27297 -1.46875,10.3125 -6.27553,4.25115 -6.7231,5.42995 -4.0625,10.90625 2.14302,4.411 2.43174,4.63615 5.46875,4.03125 1.76357,-0.35125 4.88191,-1.48471 6.9375,-2.5 l 3.75,-1.84375 3.625,4.4375 3.625,4.4375 -2.9375,4.1875 c -4.6785,6.62199 -4.77436,7.57856 -1.125,11.34375 1.77612,1.83249 4.02685,3.34375 5.03125,3.34375 1.00439,0 3.85792,-1.86245 6.3125,-4.125 l 4.4375,-4.09375 4.96875,3.15625 4.9375,3.1875 -1.4375,4.0625 c -0.78862,2.23516 -1.4375,5.50893 -1.4375,7.28125 0,2.80348 0.53896,3.45952 4.09375,5.0625 5.38718,2.42928 6.78259,1.52143 12.46875,-8.09375 0.99717,-1.68619 1.40892,-1.70215 6.5,-0.28125 l 5.4375,1.53125 -0.3125,4.40625 c -0.41695,5.76854 1.12393,9.63171 4.03125,10.1875 5.96109,1.13957 7.73244,0.75075 9.15625,-2.03125 0.77409,-1.5125 1.70537,-4.6625 2.09375,-7 l 0.71875,-4.25 5.90625,0 c 5.60188,0 5.90295,0.13587 6.53125,2.75 0.36352,1.5125 1.51874,4.44791 2.5625,6.53125 1.8099,3.61254 2.08639,3.76351 5.625,3.125 7.1143,-1.28371 7.50434,-1.82692 6.96875,-9.3125 l -0.46875,-6.6875 5.375,-2.125 5.40625,-2.125 2.4375,3.90625 c 1.35311,2.14347 3.58367,4.61293 4.9375,5.5 2.31152,1.51456 2.70437,1.47702 6.5,-0.65625 4.72273,-2.65432 5.12669,-4.95952 2.03125,-11.78125 -1.08792,-2.39757 -2,-4.47632 -2,-4.625 0,-0.14869 2.01931,-1.89911 4.46875,-3.90625 l 4.4375,-3.65625 4.625,3.53125 c 2.54269,1.94088 5.43661,3.53125 6.4375,3.53125 1.0009,0 3.22486,-1.61191 4.9375,-3.5625 3.57701,-4.07399 3.3098,-5.38352 -2.46875,-11.4375 l -3.375,-3.53125 3.09375,-4.71875 c 1.69662,-2.60821 3.37134,-4.758 3.71875,-4.75 0.34741,0.008 2.425,0.67618 4.625,1.46875 7.15409,2.57736 8.82159,2.10125 11.40625,-3.21875 l 2.3125,-4.71875 -3.78125,-3.28125 c -2.07378,-1.79265 -4.24789,-3.27325 -4.84375,-3.28125 -3.30439,-0.0467 -3.75878,-1.58499 -2.09375,-7.3125 l 1.65625,-5.65625 5.71875,0 c 7.81581,0 9.33263,-1.27402 8.9375,-7.53125 -0.30543,-4.83664 -0.41738,-4.99261 -4.3125,-6.1875 -2.2,-0.67488 -5.1407,-1.47467 -6.5625,-1.75 -2.39936,-0.46464 -2.61529,-0.9102 -2.8125,-6.375 -0.21128,-5.85502 -0.20372,-5.87801 2.90625,-6.5 1.72007,-0.34402 4.72564,-1.39636 6.65625,-2.3125 3.44861,-1.63647 3.48414,-1.73729 2.8125,-6.25 -1.02371,-6.87831 -1.80973,-7.42327 -9.59375,-6.65625 l -6.65625,0.65625 -0.65625,-3.5625 c -0.36615,-1.95178 -1.09993,-3.53125 -1.625,-3.53125 -2.07928,0 -0.80785,-4.04849 1.78125,-5.65625 7.8394,-4.86803 8.8425,-7.59348 4.71875,-13 -3.03101,-3.97386 -4.32018,-4.09136 -11.09375,-0.9375 l -5.15625,2.40625 -3.09375,-4.3125 c -3.54393,-4.93484 -3.71,-5.7543 -1.53125,-7.5625 0.8652,-0.71805 2.45817,-3.08534 3.5625,-5.25 l 2.03125,-3.9375 -3.28125,-3.375 c -1.80243,-1.85963 -4.18704,-3.375 -5.28125,-3.375 -1.09421,0 -4.08683,1.77094 -6.65625,3.9375 l -4.6875,3.9375 -3.875,-2.59375 c -5.63737,-3.73534 -5.56656,-3.58881 -3.90625,-7.5625 0.83762,-2.00471 1.5,-5.21081 1.5,-7.09375 0,-3.063589 -0.40245,-3.591799 -4,-5.031251 -2.21113,-0.88472 -4.49725,-1.59375 -5.0625,-1.59375 -1.41703,0 -5.5858,4.916842 -7,8.250001 -1.3317,3.1387 -1.78186,3.21481 -7.9375,1.375 l -4.5,-1.34375 -0.0937,-6.218751 c -0.0649,-3.4143 -0.60023,-6.66273 -1.15625,-7.21875 -1.03546,-1.03546 -4.30992,-1.64077 -7.03125,-1.625 z m 4.65625,34.781251 c 3.96829,0 13.36659,3.40929 20.53125,7.4375 6.62973,3.72744 17.59375,13.57494 17.59375,15.8125 0,2.01088 -4.91329,6.08688 -12.5,10.34375 -1.1,0.6172 -6.78305,3.85928 -12.65625,7.21875 -12.89135,7.37386 -15.25739,8.13273 -16.75,5.34375 -1.42514,-2.66288 -1.48198,-41.56642 -0.0625,-44.21875 0.64619,-1.20742 2.09076,-1.9375 3.84375,-1.9375 z m -26.46875,0.5625 c 2.96663,-0.008 3.10116,0.47242 3.84375,3.9375 0.4715,2.2 0.72609,12.44778 0.5625,22.78125 -0.24355,15.38443 -0.58424,18.97492 -1.8125,19.75 -0.825,0.52061 -1.94225,0.9295 -2.5,0.9375 -1.00802,0.0152 -23.96192,-12.93059 -32.84375,-18.53125 -2.55602,-1.61177 -4.92523,-3.76629 -5.25,-4.78125 -0.88234,-2.75748 4.15951,-8.37655 12.8125,-14.28125 8.85012,-6.03924 17.54295,-9.63531 23.71875,-9.78125 0.54949,-0.013 1.04495,-0.0301 1.46875,-0.0312 z m 73.21875,41.4375 c 4.54869,0 6.88575,8.17935 6.84375,24 -0.0339,12.74616 -1.29332,19.66831 -4.0625,22.4375 -0.84976,0.84975 -2.09079,1.5625 -2.75,1.5625 -1.24357,0 -31.0655,-16.7661 -35.90625,-20.1875 -1.5125,-1.06902 -2.75,-2.7874 -2.75,-3.8125 0,-1.0251 1.2375,-2.74963 2.75,-3.8125 5.05321,-3.55103 34.62323,-20.1875 35.875,-20.1875 z m -121.125,0.4375 c 5.01658,0.25456 37.99737,19.38937 39.09375,22.84375 0.89042,2.80546 -0.4488,3.81156 -20.875,15.46875 -8.91055,5.08524 -16.72678,9.248 -17.375,9.25 -1.87153,0.007 -4.05927,-2.67965 -5.5,-6.75 -2.11897,-5.98655 -1.81272,-29.55627 0.46875,-35.46875 1.06772,-2.76703 2.6486,-4.94309 3.8125,-5.3125 0.10163,-0.0323 0.21317,-0.0395 0.375,-0.0312 z m 61.03125,12.96875 c 1.80098,0.0285 3.65812,0.55777 5.46875,1.78125 6.56237,4.43435 6.61133,13.13905 0.0937,17.53125 -5.16301,3.47935 -10.04077,2.67264 -13.9375,-2.28125 -5.87533,-7.46928 0.57076,-17.15473 8.375,-17.03125 z m 11.375,28.8125 c 0.12654,-0.0144 0.25876,-0.007 0.40625,0 0.39331,0.018 0.88501,0.10605 1.46875,0.25 3.58188,0.88332 33.03505,18.00927 36.0625,20.96875 2.21855,2.16874 2.26118,2.44856 0.8125,5.25 -3.02627,5.85216 -17.20367,15.62512 -27.9375,19.25 -7.72679,2.60937 -11.33993,2.64295 -12.6875,0.125 -1.35205,-2.52625 -1.3492,-40.04508 0,-43.59375 0.56869,-1.49575 0.98925,-2.149 1.875,-2.25 z m -23.625,0.4375 c 2.12448,-0.18158 2.77803,1.13776 3.25,3.65625 0.32914,1.7565 0.45382,11.86028 0.28125,22.46875 -0.25728,15.81656 -0.58248,19.47381 -1.8125,20.25 -4.48571,2.83067 -16.93307,-1.64059 -29.625,-10.625 -6.56406,-4.64659 -11.375,-9.68599 -11.375,-11.9375 0,-2.40766 3.89583,-5.1819 21.15625,-15.03125 10.24477,-5.84599 15.39352,-8.54779 18.125,-8.78125 z"
     style="fill:#e8dfc7;fill-opacity:1" />
  <path
     style="fill:#e8dfc7;fill-opacity:1"
     d="m -603.87572,-64.290078 c -1.6328,0.009 -3.0615,0.23047 -3.6875,0.75 -0.82103,0.6814 -2.04467,3.92391 -2.71875,7.1875 l -1.21875,5.937501 -5.875,-0.3125 -5.84375,-0.28125 -1.8125,-5.312501 c -2.43086,-7.19676 -2.76726,-7.44828 -8.9375,-6.125 l -5.25,1.125 0.25,7.125002 0.21875,7.124999 -5.28125,2.3125 c -2.91301,1.27667 -5.3917,2.18923 -5.5,2.03125 -0.1083,-0.15798 -1.24227,-2.00316 -2.5,-4.09375 -1.25773,-2.09058 -3.31325,-4.47348 -4.59375,-5.312499 -2.15775,-1.41381 -2.68515,-1.34873 -6.90625,1.124999 -5.07652,2.97504 -5.21264,4.243 -1.4375,11.78125 1.04138,2.07944 1.875,3.93319 1.875,4.125 0,0.19181 -2.01313,2.02469 -4.5,4.0625 l -4.53125,3.6875 -3.5,-3.0625 c -5.41622,-4.75551 -7.96208,-4.97525 -12.03125,-1.03125 -1.88545,1.82744 -3.4375,3.86353 -3.4375,4.53125 0,0.66772 1.81249,3.50556 4.03125,6.3125 l 4.0625,5.125 -2.65625,4.46875 c -1.44602,2.4674496 -2.92101,4.5059996 -3.28125,4.4999996 -0.36023,-0.006 -2.86258,-0.68096 -5.5625,-1.5 -7.48915,-2.2719196 -8.25353,-2.0635496 -10.5625,3.15625 l -2.0625,4.68749999 2.28125,2.40625001 c 1.24717,1.33676 3.93384,3.30018 5.96875,4.34375 3.37363,1.7301304 3.6032,2.1438904 2.8125,4.6562504 -0.47693,1.51541 -1.12221,3.92486 -1.4375,5.375 -0.5416,2.49092 -0.9599,2.65993 -7.53125,3.03125 -3.82565,0.21617 -7.14366,0.61631 -7.375,0.875 -0.23134,0.25869 -0.65358,2.63934 -0.93751,5.28125 -0.45019,4.188849 -0.2151,4.993669 1.75001,6.281249 1.23939,0.81208 4.22087,1.80834 6.625,2.21875 4.33881,0.74069 4.36035,0.78174 5.09375,5.71875 0.40637,2.73558 0.56105,5.45209 0.34375,6.0625 -0.2173,0.61041 -2.33441,1.65179 -4.71875,2.28125 -6.95604,1.836381 -8.19287,3.254481 -7.40625,8.500001 0.91742,6.1178 2.34103,7.03931 9.59375,6.28125 l 5.96875,-0.625 1.375,3.3125 c 3.00491,7.19177 3.01819,7.27297 -1.46875,10.3125 -6.27553,4.25115 -6.7231,5.42995 -4.0625,10.90625 2.14302,4.411 2.43174,4.63615 5.46875,4.03125 1.76357,-0.35125 4.88191,-1.48471 6.9375,-2.5 l 3.75,-1.84375 3.625,4.4375 3.625,4.4375 -2.9375,4.187498 c -4.6785,6.621989 -4.77436,7.578559 -1.125,11.343749 1.77612,1.83249 4.02685,3.34375 5.03125,3.34375 1.00439,0 3.85792,-1.86245 6.3125,-4.125 l 4.4375,-4.09375 4.96875,3.15625 4.9375,3.1875 -1.4375,4.0625 c -0.78862,2.23516 -1.4375,5.50893 -1.4375,7.28125 0,2.80348 0.53896,3.45952 4.09375,5.0625 5.38718,2.42928 6.78259,1.52143 12.46875,-8.09375 0.99717,-1.68619 1.40892,-1.70215 6.5,-0.28125 l 5.4375,1.53125 -0.3125,4.40625 c -0.41695,5.76854 1.12393,9.63171 4.03125,10.1875 5.96109,1.13957 7.73244,0.75075 9.15625,-2.03125 0.77409,-1.5125 1.70537,-4.6625 2.09375,-7 l 0.71875,-4.25 5.90625,0 c 5.60188,0 5.90295,0.13587 6.53125,2.75 0.36352,1.5125 1.51874,4.44791 2.5625,6.53125 1.8099,3.61254 2.08639,3.76351 5.625,3.125 7.1143,-1.28371 7.50434,-1.82692 6.96875,-9.3125 l -0.46875,-6.6875 5.375,-2.125 5.40625,-2.125 2.4375,3.90625 c 1.35311,2.14347 3.58367,4.61293 4.9375,5.5 2.31152,1.51456 2.70437,1.47702 6.5,-0.65625 4.72273,-2.65432 5.12669,-4.95952 2.03125,-11.78125 -1.08792,-2.39757 -2,-4.47632 -2,-4.625 0,-0.14869 2.01931,-1.89911 4.46875,-3.90625 l 4.4375,-3.65625 4.625,3.53125 c 2.54269,1.94088 5.43661,3.53125 6.4375,3.53125 1.0009,0 3.22486,-1.61191 4.9375,-3.5625 3.57701,-4.073989 3.3098,-5.383519 -2.46875,-11.437497 l -3.375,-3.53125 3.09375,-4.71875 c 1.69662,-2.60821 3.37134,-4.758 3.71875,-4.75 0.34741,0.008 2.425,0.67618 4.625,1.46875 7.15409,2.57736 8.82159,2.10125 11.40625,-3.21875 l 2.3125,-4.71875 -3.78125,-3.28125 c -2.07378,-1.79265 -4.24789,-3.27325 -4.84375,-3.28125 -3.30439,-0.0467 -3.75878,-1.58499 -2.09375,-7.3125 l 1.65625,-5.65625 5.71875,0 c 7.81581,0 9.33263,-1.27402 8.9375,-7.531251 -0.30543,-4.83664 -0.41738,-4.99261 -4.3125,-6.1875 -2.2,-0.67488 -5.1407,-1.47467 -6.5625,-1.75 -2.39936,-0.46464 -2.61529,-0.9102 -2.8125,-6.375 -0.21128,-5.855019 -0.20372,-5.878009 2.90625,-6.499999 1.72007,-0.34402 4.72564,-1.39636 6.65625,-2.3125 3.44861,-1.63647 3.48414,-1.73729 2.8125,-6.25 -1.02371,-6.87831 -1.80973,-7.42327 -9.59375,-6.65625 l -6.65625,0.65625 -0.65625,-3.5625004 c -0.36615,-1.95178 -1.09993,-3.53125 -1.625,-3.53125 -2.07928,0 -0.80785,-4.04849001 1.78125,-5.65625 7.8394,-4.86803 8.8425,-7.59348 4.71875,-12.9999996 -3.03101,-3.97386 -4.32018,-4.09136 -11.09375,-0.9375 l -5.15625,2.40625 -3.09375,-4.3125 c -3.54393,-4.93484 -3.71,-5.7543 -1.53125,-7.5625 0.8652,-0.71805 2.45817,-3.08534 3.5625,-5.25 l 2.03125,-3.9375 -3.28125,-3.375 c -1.80243,-1.85963 -4.18704,-3.375 -5.28125,-3.375 -1.09421,0 -4.08683,1.77094 -6.65625,3.9375 l -4.6875,3.9375 -3.875,-2.59375 c -5.63737,-3.73534 -5.56656,-3.58881 -3.90625,-7.5625 0.83762,-2.00471 1.5,-5.21081 1.5,-7.09375 0,-3.063589 -0.40245,-3.591799 -4,-5.031251 -2.21113,-0.88472 -4.49725,-1.59375 -5.0625,-1.59375 -1.41703,0 -5.5858,4.916842 -7,8.250001 -1.3317,3.1387 -1.78186,3.21481 -7.9375,1.375 l -4.5,-1.34375 -0.0937,-6.218751 c -0.0649,-3.4143 -0.60023,-6.66273 -1.15625,-7.21875 -1.03546,-1.03546 -4.30992,-1.64077 -7.03125,-1.625 z m 4.65625,34.781251 c 3.96829,0 13.36659,3.40929 20.53125,7.4375 6.62973,3.72744 17.59375,13.5749396 17.59375,15.8124996 0,2.01088 -4.91329,6.08687999 -12.5,10.34375 -1.1,0.6172 -6.78305,3.8592804 -12.65625,7.2187504 -12.89135,7.37386 -15.25739,8.13273 -16.75,5.34375 -1.42514,-2.66288 -1.48198,-41.56642 -0.0625,-44.21875 0.64619,-1.20742 2.09076,-1.9375 3.84375,-1.9375 z m -26.46875,0.5625 c 2.96663,-0.008 3.10116,0.47242 3.84375,3.9375 0.4715,2.2 0.72609,12.44778 0.5625,22.7812496 -0.24355,15.3844304 -0.58424,18.9749204 -1.8125,19.7500004 -0.825,0.52061 -1.94225,0.9295 -2.5,0.9375 -1.00802,0.0152 -23.96192,-12.9305904 -32.84375,-18.53125041 -2.55602,-1.61176999 -4.92523,-3.76628999 -5.25,-4.78124999 -0.88234,-2.75748 4.15951,-8.3765496 12.8125,-14.2812496 8.85012,-6.03924 17.54295,-9.63531 23.71875,-9.78125 0.54949,-0.013 1.04495,-0.0301 1.46875,-0.0312 z m 73.21875,41.4375 c 4.54869,0 6.88575,8.17935 6.84375,23.999999 -0.0339,12.746161 -1.29332,19.668311 -4.0625,22.437501 -0.84976,0.84975 -2.09079,1.5625 -2.75,1.5625 -1.24357,0 -31.0655,-16.766101 -35.90625,-20.187501 -1.5125,-1.06902 -2.75,-2.7874 -2.75,-3.8125 0,-1.0251 1.2375,-2.74963 2.75,-3.8125 5.05321,-3.55103 34.62323,-20.187499 35.875,-20.187499 z m -121.125,0.4375 c 5.01658,0.25456 37.99737,19.389369 39.09375,22.843749 0.89042,2.80546 -0.4488,3.81156 -20.875,15.468751 -8.91055,5.08524 -16.72678,9.248 -17.375,9.25 -1.87153,0.007 -4.05927,-2.67965 -5.5,-6.75 -2.11897,-5.986551 -1.81272,-29.55627 0.46875,-35.46875 1.06772,-2.76703 2.6486,-4.94309 3.8125,-5.3125 0.10163,-0.0323 0.21317,-0.0395 0.375,-0.0312 z m 61.03125,12.96875 c 1.80098,0.0285 3.65812,0.55777 5.46875,1.78125 6.56237,4.434349 6.61133,13.139049 0.0937,17.531249 -5.16301,3.47935 -10.04077,2.67264 -13.9375,-2.28125 -5.87533,-7.46928 0.57076,-17.154729 8.375,-17.031249 z m 11.375,28.8125 c 0.12654,-0.0144 0.25876,-0.007 0.40625,0 0.39331,0.018 0.88501,0.10605 1.46875,0.25 3.58188,0.88332 33.03505,18.00927 36.0625,20.96875 2.21855,2.16874 2.26118,2.44856 0.8125,5.25 -3.02627,5.85216 -17.20367,15.62512 -27.9375,19.249997 -7.72679,2.60937 -11.33993,2.64295 -12.6875,0.125 -1.35205,-2.526249 -1.3492,-40.045077 0,-43.593747 0.56869,-1.49575 0.98925,-2.149 1.875,-2.25 z m -23.625,0.4375 c 2.12448,-0.18158 2.77803,1.13776 3.25,3.65625 0.32914,1.7565 0.45382,11.86028 0.28125,22.46875 -0.25728,15.81656 -0.58248,19.473807 -1.8125,20.249997 -4.48571,2.83067 -16.93307,-1.640589 -29.625,-10.624997 -6.56406,-4.64659 -11.375,-9.68599 -11.375,-11.9375 0,-2.40766 3.89583,-5.1819 21.15625,-15.03125 10.24477,-5.84599 15.39352,-8.54779 18.125,-8.78125 z"
     id="path2995"
     inkscape:connector-curvature="0" />
  <path
     inkscape:connector-curvature="0"
     id="path2997"
     d="m -301.06656,-64.290078 c -1.6328,0.009 -3.0615,0.23047 -3.6875,0.75 -0.82103,0.6814 -2.04467,3.92391 -2.71875,7.1875 l -1.21875,5.937501 -5.875,-0.3125 -5.84375,-0.28125 -1.8125,-5.312501 c -2.43086,-7.19676 -2.76726,-7.44828 -8.9375,-6.125 l -5.25,1.125 0.25,7.125002 0.21875,7.124999 -5.28125,2.3125 c -2.91301,1.27667 -5.3917,2.18923 -5.5,2.03125 -0.1083,-0.15798 -1.24227,-2.00316 -2.5,-4.09375 -1.25773,-2.09058 -3.31325,-4.47348 -4.59375,-5.312499 -2.15775,-1.41381 -2.68515,-1.34873 -6.90625,1.124999 -5.07652,2.97504 -5.21264,4.243 -1.4375,11.78125 1.04138,2.07944 1.875,3.93319 1.875,4.125 0,0.19181 -2.01313,2.02469 -4.5,4.0625 l -4.53125,3.6875 -3.5,-3.0625 c -5.41622,-4.75551 -7.96208,-4.97525 -12.03125,-1.03125 -1.88545,1.82744 -3.4375,3.86353 -3.4375,4.53125 0,0.66772 1.81249,3.50556 4.03125,6.3125 l 4.0625,5.125 -2.65625,4.46875 c -1.44602,2.4674496 -2.92101,4.5059996 -3.28125,4.4999996 -0.36023,-0.006 -2.86258,-0.68096 -5.5625,-1.5 -7.48915,-2.2719196 -8.25353,-2.0635496 -10.5625,3.15625 l -2.0625,4.68749999 2.28125,2.40625001 c 1.24717,1.33676 3.93384,3.30018 5.96875,4.34375 3.37363,1.7301304 3.6032,2.1438904 2.8125,4.6562504 -0.47693,1.51541 -1.12221,3.92486 -1.4375,5.375 -0.5416,2.49092 -0.9599,2.65993 -7.53125,3.03125 -3.82565,0.21617 -7.14366,0.61631 -7.375,0.875 -0.23134,0.25869 -0.65358,2.63934 -0.93751,5.28125 -0.45019,4.188849 -0.2151,4.993669 1.75001,6.281249 1.23939,0.81208 4.22087,1.80834 6.625,2.21875 4.33881,0.74069 4.36035,0.78174 5.09375,5.71875 0.40637,2.73558 0.56105,5.45209 0.34375,6.0625 -0.2173,0.61041 -2.33441,1.65179 -4.71875,2.28125 -6.95604,1.836381 -8.19287,3.254481 -7.40625,8.500001 0.91742,6.1178 2.34103,7.03931 9.59375,6.28125 l 5.96875,-0.625 1.375,3.3125 c 3.00491,7.19177 3.01819,7.27297 -1.46875,10.3125 -6.27553,4.25115 -6.7231,5.42995 -4.0625,10.90625 2.14302,4.411 2.43174,4.63615 5.46875,4.03125 1.76357,-0.35125 4.88191,-1.48471 6.9375,-2.5 l 3.75,-1.84375 3.625,4.4375 3.625,4.4375 -2.9375,4.187498 c -4.6785,6.621989 -4.77436,7.578559 -1.125,11.343749 1.77612,1.83249 4.02685,3.34375 5.03125,3.34375 1.00439,0 3.85792,-1.86245 6.3125,-4.125 l 4.4375,-4.09375 4.96875,3.15625 4.9375,3.1875 -1.4375,4.0625 c -0.78862,2.23516 -1.4375,5.50893 -1.4375,7.28125 0,2.80348 0.53896,3.45952 4.09375,5.0625 5.38718,2.42928 6.78259,1.52143 12.46875,-8.09375 0.99717,-1.68619 1.40892,-1.70215 6.5,-0.28125 l 5.4375,1.53125 -0.3125,4.40625 c -0.41695,5.76854 1.12393,9.63171 4.03125,10.1875 5.96109,1.13957 7.73244,0.75075 9.15625,-2.03125 0.77409,-1.5125 1.70537,-4.6625 2.09375,-7 l 0.71875,-4.25 5.90625,0 c 5.60188,0 5.90295,0.13587 6.53125,2.75 0.36352,1.5125 1.51874,4.44791 2.5625,6.53125 1.8099,3.61254 2.08639,3.76351 5.625,3.125 7.1143,-1.28371 7.50434,-1.82692 6.96875,-9.3125 l -0.46875,-6.6875 5.375,-2.125 5.40625,-2.125 2.4375,3.90625 c 1.35311,2.14347 3.58367,4.61293 4.9375,5.5 2.31152,1.51456 2.70437,1.47702 6.5,-0.65625 4.72273,-2.65432 5.12669,-4.95952 2.03125,-11.78125 -1.08792,-2.39757 -2,-4.47632 -2,-4.625 0,-0.14869 2.01931,-1.89911 4.46875,-3.90625 l 4.4375,-3.65625 4.625,3.53125 c 2.54269,1.94088 5.43661,3.53125 6.4375,3.53125 1.0009,0 3.22486,-1.61191 4.9375,-3.5625 3.57701,-4.073989 3.3098,-5.383519 -2.46875,-11.437497 l -3.375,-3.53125 3.09375,-4.71875 c 1.69662,-2.60821 3.37134,-4.758 3.71875,-4.75 0.34741,0.008 2.425,0.67618 4.625,1.46875 7.15409,2.57736 8.82159,2.10125 11.40625,-3.21875 l 2.3125,-4.71875 -3.78125,-3.28125 c -2.07378,-1.79265 -4.24789,-3.27325 -4.84375,-3.28125 -3.30439,-0.0467 -3.75878,-1.58499 -2.09375,-7.3125 l 1.65625,-5.65625 5.71875,0 c 7.81581,0 9.33263,-1.27402 8.9375,-7.531251 -0.30543,-4.83664 -0.41738,-4.99261 -4.3125,-6.1875 -2.2,-0.67488 -5.1407,-1.47467 -6.5625,-1.75 -2.39936,-0.46464 -2.61529,-0.9102 -2.8125,-6.375 -0.21128,-5.855019 -0.20372,-5.878009 2.90625,-6.499999 1.72007,-0.34402 4.72564,-1.39636 6.65625,-2.3125 3.44861,-1.63647 3.48414,-1.73729 2.8125,-6.25 -1.02371,-6.87831 -1.80973,-7.42327 -9.59375,-6.65625 l -6.65625,0.65625 -0.65625,-3.5625004 c -0.36615,-1.95178 -1.09993,-3.53125 -1.625,-3.53125 -2.07928,0 -0.80785,-4.04849001 1.78125,-5.65625 7.8394,-4.86803 8.8425,-7.59348 4.71875,-12.9999996 -3.03101,-3.97386 -4.32018,-4.09136 -11.09375,-0.9375 l -5.15625,2.40625 -3.09375,-4.3125 c -3.54393,-4.93484 -3.71,-5.7543 -1.53125,-7.5625 0.8652,-0.71805 2.45817,-3.08534 3.5625,-5.25 l 2.03125,-3.9375 -3.28125,-3.375 c -1.80243,-1.85963 -4.18704,-3.375 -5.28125,-3.375 -1.09421,0 -4.08683,1.77094 -6.65625,3.9375 l -4.6875,3.9375 -3.875,-2.59375 c -5.63737,-3.73534 -5.56656,-3.58881 -3.90625,-7.5625 0.83762,-2.00471 1.5,-5.21081 1.5,-7.09375 0,-3.063589 -0.40245,-3.591799 -4,-5.031251 -2.21113,-0.88472 -4.49725,-1.59375 -5.0625,-1.59375 -1.41703,0 -5.5858,4.916842 -7,8.250001 -1.3317,3.1387 -1.78186,3.21481 -7.9375,1.375 l -4.5,-1.34375 -0.0937,-6.218751 c -0.0649,-3.4143 -0.60023,-6.66273 -1.15625,-7.21875 -1.03546,-1.03546 -4.30992,-1.64077 -7.03125,-1.625 z m 4.65625,34.781251 c 3.96829,0 13.36659,3.40929 20.53125,7.4375 6.62973,3.72744 17.59375,13.5749396 17.59375,15.8124996 0,2.01088 -4.91329,6.08687999 -12.5,10.34375 -1.1,0.6172 -6.78305,3.8592804 -12.65625,7.2187504 -12.89135,7.37386 -15.25739,8.13273 -16.75,5.34375 -1.42514,-2.66288 -1.48198,-41.56642 -0.0625,-44.21875 0.64619,-1.20742 2.09076,-1.9375 3.84375,-1.9375 z m -26.46875,0.5625 c 2.96663,-0.008 3.10116,0.47242 3.84375,3.9375 0.4715,2.2 0.72609,12.44778 0.5625,22.7812496 -0.24355,15.3844304 -0.58424,18.9749204 -1.8125,19.7500004 -0.825,0.52061 -1.94225,0.9295 -2.5,0.9375 -1.00802,0.0152 -23.96192,-12.9305904 -32.84375,-18.53125041 -2.55602,-1.61176999 -4.92523,-3.76628999 -5.25,-4.78124999 -0.88234,-2.75748 4.15951,-8.3765496 12.8125,-14.2812496 8.85012,-6.03924 17.54295,-9.63531 23.71875,-9.78125 0.54949,-0.013 1.04495,-0.0301 1.46875,-0.0312 z m 73.21875,41.4375 c 4.54869,0 6.88575,8.17935 6.84375,23.999999 -0.0339,12.746161 -1.29332,19.668311 -4.0625,22.437501 -0.84976,0.84975 -2.09079,1.5625 -2.75,1.5625 -1.24357,0 -31.0655,-16.766101 -35.90625,-20.187501 -1.5125,-1.06902 -2.75,-2.7874 -2.75,-3.8125 0,-1.0251 1.2375,-2.74963 2.75,-3.8125 5.05321,-3.55103 34.62323,-20.187499 35.875,-20.187499 z m -121.125,0.4375 c 5.01658,0.25456 37.99737,19.389369 39.09375,22.843749 0.89042,2.80546 -0.4488,3.81156 -20.875,15.468751 -8.91055,5.08524 -16.72678,9.248 -17.375,9.25 -1.87153,0.007 -4.05927,-2.67965 -5.5,-6.75 -2.11897,-5.986551 -1.81272,-29.55627 0.46875,-35.46875 1.06772,-2.76703 2.6486,-4.94309 3.8125,-5.3125 0.10163,-0.0323 0.21317,-0.0395 0.375,-0.0312 z m 61.03125,12.96875 c 1.80098,0.0285 3.65812,0.55777 5.46875,1.78125 6.56237,4.434349 6.61133,13.139049 0.0937,17.531249 -5.16301,3.47935 -10.04077,2.67264 -13.9375,-2.28125 -5.87533,-7.46928 0.57076,-17.154729 8.375,-17.031249 z m 11.375,28.8125 c 0.12654,-0.0144 0.25876,-0.007 0.40625,0 0.39331,0.018 0.88501,0.10605 1.46875,0.25 3.58188,0.88332 33.03505,18.00927 36.0625,20.96875 2.21855,2.16874 2.26118,2.44856 0.8125,5.25 -3.02627,5.85216 -17.20367,15.62512 -27.9375,19.249997 -7.72679,2.60937 -11.33993,2.64295 -12.6875,0.125 -1.35205,-2.526249 -1.3492,-40.045077 0,-43.593747 0.56869,-1.49575 0.98925,-2.149 1.875,-2.25 z m -23.625,0.4375 c 2.12448,-0.18158 2.77803,1.13776 3.25,3.65625 0.32914,1.7565 0.45382,11.86028 0.28125,22.46875 -0.25728,15.81656 -0.58248,19.473807 -1.8125,20.249997 -4.48571,2.83067 -16.93307,-1.640589 -29.625,-10.624997 -6.56406,-4.64659 -11.375,-9.68599 -11.375,-11.9375 0,-2.40766 3.89583,-5.1819 21.15625,-15.03125 10.24477,-5.84599 15.39352,-8.54779 18.125,-8.78125 z"
     style="fill:#e8dfc7;fill-opacity:1" />
  <path
     style="fill:#e8dfc7;fill-opacity:1"
     d="m -302.50167,237.08397 c -1.6328,0.009 -3.0615,0.23047 -3.6875,0.75 -0.82103,0.6814 -2.04467,3.92391 -2.71875,7.1875 l -1.21875,5.9375 -5.875,-0.3125 -5.84375,-0.28125 -1.8125,-5.3125 c -2.43086,-7.19676 -2.76726,-7.44828 -8.9375,-6.125 l -5.25,1.125 0.25,7.125 0.21875,7.125 -5.28125,2.3125 c -2.91301,1.27667 -5.3917,2.18923 -5.5,2.03125 -0.1083,-0.15798 -1.24227,-2.00316 -2.5,-4.09375 -1.25773,-2.09058 -3.31325,-4.47348 -4.59375,-5.3125 -2.15775,-1.41381 -2.68515,-1.34873 -6.90625,1.125 -5.07652,2.97504 -5.21264,4.243 -1.4375,11.78125 1.04138,2.07944 1.875,3.93319 1.875,4.125 0,0.19181 -2.01313,2.02469 -4.5,4.0625 l -4.53125,3.6875 -3.5,-3.0625 c -5.41622,-4.75551 -7.96208,-4.97525 -12.03125,-1.03125 -1.88545,1.82744 -3.4375,3.86353 -3.4375,4.53125 0,0.66772 1.81249,3.50556 4.03125,6.3125 l 4.0625,5.125 -2.65625,4.46875 c -1.44602,2.46745 -2.92101,4.506 -3.28125,4.5 -0.36023,-0.006 -2.86258,-0.68096 -5.5625,-1.5 -7.48915,-2.27192 -8.25353,-2.06355 -10.5625,3.15625 l -2.0625,4.6875 2.28125,2.40625 c 1.24717,1.33676 3.93384,3.30018 5.96875,4.34375 3.37363,1.73013 3.6032,2.14389 2.8125,4.65625 -0.47693,1.51541 -1.12221,3.92486 -1.4375,5.375 -0.5416,2.49092 -0.9599,2.65993 -7.53125,3.03125 -3.82565,0.21617 -7.14366,0.61631 -7.375,0.875 -0.23134,0.25869 -0.65358,2.63934 -0.93751,5.28125 -0.45019,4.18885 -0.2151,4.99367 1.75001,6.28125 1.23939,0.81208 4.22087,1.80834 6.625,2.21875 4.33881,0.74069 4.36035,0.78174 5.09375,5.71875 0.40637,2.73558 0.56105,5.45209 0.34375,6.0625 -0.2173,0.61041 -2.33441,1.65179 -4.71875,2.28125 -6.95604,1.83638 -8.19287,3.25448 -7.40625,8.5 0.91742,6.1178 2.34103,7.03931 9.59375,6.28125 l 5.96875,-0.625 1.375,3.3125 c 3.00491,7.19177 3.01819,7.27297 -1.46875,10.3125 -6.27553,4.25115 -6.7231,5.42995 -4.0625,10.90625 2.14302,4.411 2.43174,4.63615 5.46875,4.03125 1.76357,-0.35125 4.88191,-1.48471 6.9375,-2.5 l 3.75,-1.84375 3.625,4.4375 3.625,4.4375 -2.9375,4.1875 c -4.6785,6.62199 -4.77436,7.57856 -1.125,11.34375 1.77612,1.83249 4.02685,3.34375 5.03125,3.34375 1.00439,0 3.85792,-1.86245 6.3125,-4.125 l 4.4375,-4.09375 4.96875,3.15625 4.9375,3.1875 -1.4375,4.0625 c -0.78862,2.23516 -1.4375,5.50893 -1.4375,7.28125 0,2.80348 0.53896,3.45952 4.09375,5.0625 5.38718,2.42928 6.78259,1.52143 12.46875,-8.09375 0.99717,-1.68619 1.40892,-1.70215 6.5,-0.28125 l 5.4375,1.53125 -0.3125,4.40625 c -0.41695,5.76854 1.12393,9.63171 4.03125,10.1875 5.96109,1.13957 7.73244,0.75075 9.15625,-2.03125 0.77409,-1.5125 1.70537,-4.6625 2.09375,-7 l 0.71875,-4.25 5.90625,0 c 5.60188,0 5.90295,0.13587 6.53125,2.75 0.36352,1.5125 1.51874,4.44791 2.5625,6.53125 1.8099,3.61254 2.08639,3.76351 5.625,3.125 7.1143,-1.28371 7.50434,-1.82692 6.96875,-9.3125 l -0.46875,-6.6875 5.375,-2.125 5.40625,-2.125 2.4375,3.90625 c 1.35311,2.14347 3.58367,4.61293 4.9375,5.5 2.31152,1.51456 2.70437,1.47702 6.5,-0.65625 4.72273,-2.65432 5.12669,-4.95952 2.03125,-11.78125 -1.08792,-2.39757 -2,-4.47632 -2,-4.625 0,-0.14869 2.01931,-1.89911 4.46875,-3.90625 l 4.4375,-3.65625 4.625,3.53125 c 2.54269,1.94088 5.43661,3.53125 6.4375,3.53125 1.0009,0 3.22486,-1.61191 4.9375,-3.5625 3.57701,-4.07399 3.3098,-5.38352 -2.46875,-11.4375 l -3.375,-3.53125 3.09375,-4.71875 c 1.69662,-2.60821 3.37134,-4.758 3.71875,-4.75 0.34741,0.008 2.425,0.67618 4.625,1.46875 7.15409,2.57736 8.82159,2.10125 11.40625,-3.21875 l 2.3125,-4.71875 -3.78125,-3.28125 c -2.07378,-1.79265 -4.24789,-3.27325 -4.84375,-3.28125 -3.30439,-0.0467 -3.75878,-1.58499 -2.09375,-7.3125 l 1.65625,-5.65625 5.71875,0 c 7.81581,0 9.33263,-1.27402 8.9375,-7.53125 -0.30543,-4.83664 -0.41738,-4.99261 -4.3125,-6.1875 -2.2,-0.67488 -5.1407,-1.47467 -6.5625,-1.75 -2.39936,-0.46464 -2.61529,-0.9102 -2.8125,-6.375 -0.21128,-5.85502 -0.20372,-5.87801 2.90625,-6.5 1.72007,-0.34402 4.72564,-1.39636 6.65625,-2.3125 3.44861,-1.63647 3.48414,-1.73729 2.8125,-6.25 -1.02371,-6.87831 -1.80973,-7.42327 -9.59375,-6.65625 l -6.65625,0.65625 -0.65625,-3.5625 c -0.36615,-1.95178 -1.09993,-3.53125 -1.625,-3.53125 -2.07928,0 -0.80785,-4.04849 1.78125,-5.65625 7.8394,-4.86803 8.8425,-7.59348 4.71875,-13 -3.03101,-3.97386 -4.32018,-4.09136 -11.09375,-0.9375 l -5.15625,2.40625 -3.09375,-4.3125 c -3.54393,-4.93484 -3.71,-5.7543 -1.53125,-7.5625 0.8652,-0.71805 2.45817,-3.08534 3.5625,-5.25 l 2.03125,-3.9375 -3.28125,-3.375 c -1.80243,-1.85963 -4.18704,-3.375 -5.28125,-3.375 -1.09421,0 -4.08683,1.77094 -6.65625,3.9375 l -4.6875,3.9375 -3.875,-2.59375 c -5.63737,-3.73534 -5.56656,-3.58881 -3.90625,-7.5625 0.83762,-2.00471 1.5,-5.21081 1.5,-7.09375 0,-3.06359 -0.40245,-3.5918 -4,-5.03125 -2.21113,-0.88472 -4.49725,-1.59375 -5.0625,-1.59375 -1.41703,0 -5.5858,4.91684 -7,8.25 -1.3317,3.1387 -1.78186,3.21481 -7.9375,1.375 l -4.5,-1.34375 -0.0937,-6.21875 c -0.0649,-3.4143 -0.60023,-6.66273 -1.15625,-7.21875 -1.03546,-1.03546 -4.30992,-1.64077 -7.03125,-1.625 z m 4.65625,34.78125 c 3.96829,0 13.36659,3.40929 20.53125,7.4375 6.62973,3.72744 17.59375,13.57494 17.59375,15.8125 0,2.01088 -4.91329,6.08688 -12.5,10.34375 -1.1,0.6172 -6.78305,3.85928 -12.65625,7.21875 -12.89135,7.37386 -15.25739,8.13273 -16.75,5.34375 -1.42514,-2.66288 -1.48198,-41.56642 -0.0625,-44.21875 0.64619,-1.20742 2.09076,-1.9375 3.84375,-1.9375 z m -26.46875,0.5625 c 2.96663,-0.008 3.10116,0.47242 3.84375,3.9375 0.4715,2.2 0.72609,12.44778 0.5625,22.78125 -0.24355,15.38443 -0.58424,18.97492 -1.8125,19.75 -0.825,0.52061 -1.94225,0.9295 -2.5,0.9375 -1.00802,0.0152 -23.96192,-12.93059 -32.84375,-18.53125 -2.55602,-1.61177 -4.92523,-3.76629 -5.25,-4.78125 -0.88234,-2.75748 4.15951,-8.37655 12.8125,-14.28125 8.85012,-6.03924 17.54295,-9.63531 23.71875,-9.78125 0.54949,-0.013 1.04495,-0.0301 1.46875,-0.0312 z m 73.21875,41.4375 c 4.54869,0 6.88575,8.17935 6.84375,24 -0.0339,12.74616 -1.29332,19.66831 -4.0625,22.4375 -0.84976,0.84975 -2.09079,1.5625 -2.75,1.5625 -1.24357,0 -31.0655,-16.7661 -35.90625,-20.1875 -1.5125,-1.06902 -2.75,-2.7874 -2.75,-3.8125 0,-1.0251 1.2375,-2.74963 2.75,-3.8125 5.05321,-3.55103 34.62323,-20.1875 35.875,-20.1875 z m -121.125,0.4375 c 5.01658,0.25456 37.99737,19.38937 39.09375,22.84375 0.89042,2.80546 -0.4488,3.81156 -20.875,15.46875 -8.91055,5.08524 -16.72678,9.248 -17.375,9.25 -1.87153,0.007 -4.05927,-2.67965 -5.5,-6.75 -2.11897,-5.98655 -1.81272,-29.55627 0.46875,-35.46875 1.06772,-2.76703 2.6486,-4.94309 3.8125,-5.3125 0.10163,-0.0323 0.21317,-0.0395 0.375,-0.0312 z m 61.03125,12.96875 c 1.80098,0.0285 3.65812,0.55777 5.46875,1.78125 6.56237,4.43435 6.61133,13.13905 0.0937,17.53125 -5.16301,3.47935 -10.04077,2.67264 -13.9375,-2.28125 -5.87533,-7.46928 0.57076,-17.15473 8.375,-17.03125 z m 11.375,28.8125 c 0.12654,-0.0144 0.25876,-0.007 0.40625,0 0.39331,0.018 0.88501,0.10605 1.46875,0.25 3.58188,0.88332 33.03505,18.00927 36.0625,20.96875 2.21855,2.16874 2.26118,2.44856 0.8125,5.25 -3.02627,5.85216 -17.20367,15.62512 -27.9375,19.25 -7.72679,2.60937 -11.33993,2.64295 -12.6875,0.125 -1.35205,-2.52625 -1.3492,-40.04508 0,-43.59375 0.56869,-1.49575 0.98925,-2.149 1.875,-2.25 z m -23.625,0.4375 c 2.12448,-0.18158 2.77803,1.13776 3.25,3.65625 0.32914,1.7565 0.45382,11.86028 0.28125,22.46875 -0.25728,15.81656 -0.58248,19.47381 -1.8125,20.25 -4.48571,2.83067 -16.93307,-1.64059 -29.625,-10.625 -6.56406,-4.64659 -11.375,-9.68599 -11.375,-11.9375 0,-2.40766 3.89583,-5.1819 21.15625,-15.03125 10.24477,-5.84599 15.39352,-8.54779 18.125,-8.78125 z"
     id="path2999"
     inkscape:connector-curvature="0" />
  <path
     inkscape:connector-curvature="0"
     id="path3001"
     d="m -603.87572,235.64886 c -1.6328,0.009 -3.0615,0.23047 -3.6875,0.75 -0.82103,0.6814 -2.04467,3.92391 -2.71875,7.1875 l -1.21875,5.9375 -5.875,-0.3125 -5.84375,-0.28125 -1.8125,-5.3125 c -2.43086,-7.19676 -2.76726,-7.44828 -8.9375,-6.125 l -5.25,1.125 0.25,7.125 0.21875,7.125 -5.28125,2.3125 c -2.91301,1.27667 -5.3917,2.18923 -5.5,2.03125 -0.1083,-0.15798 -1.24227,-2.00316 -2.5,-4.09375 -1.25773,-2.09058 -3.31325,-4.47348 -4.59375,-5.3125 -2.15775,-1.41381 -2.68515,-1.34873 -6.90625,1.125 -5.07652,2.97504 -5.21264,4.243 -1.4375,11.78125 1.04138,2.07944 1.875,3.93319 1.875,4.125 0,0.19181 -2.01313,2.02469 -4.5,4.0625 l -4.53125,3.6875 -3.5,-3.0625 c -5.41622,-4.75551 -7.96208,-4.97525 -12.03125,-1.03125 -1.88545,1.82744 -3.4375,3.86353 -3.4375,4.53125 0,0.66772 1.81249,3.50556 4.03125,6.3125 l 4.0625,5.125 -2.65625,4.46875 c -1.44602,2.46745 -2.92101,4.506 -3.28125,4.5 -0.36023,-0.006 -2.86258,-0.68096 -5.5625,-1.5 -7.48915,-2.27192 -8.25353,-2.06355 -10.5625,3.15625 l -2.0625,4.6875 2.28125,2.40625 c 1.24717,1.33676 3.93384,3.30018 5.96875,4.34375 3.37363,1.73013 3.6032,2.14389 2.8125,4.65625 -0.47693,1.51541 -1.12221,3.92486 -1.4375,5.375 -0.5416,2.49092 -0.9599,2.65993 -7.53125,3.03125 -3.82565,0.21617 -7.14366,0.61631 -7.375,0.875 -0.23134,0.25869 -0.65358,2.63934 -0.93751,5.28125 -0.45019,4.18885 -0.2151,4.99367 1.75001,6.28125 1.23939,0.81208 4.22087,1.80834 6.625,2.21875 4.33881,0.74069 4.36035,0.78174 5.09375,5.71875 0.40637,2.73558 0.56105,5.45209 0.34375,6.0625 -0.2173,0.61041 -2.33441,1.65179 -4.71875,2.28125 -6.95604,1.83638 -8.19287,3.25448 -7.40625,8.5 0.91742,6.1178 2.34103,7.03931 9.59375,6.28125 l 5.96875,-0.625 1.375,3.3125 c 3.00491,7.19177 3.01819,7.27297 -1.46875,10.3125 -6.27553,4.25115 -6.7231,5.42995 -4.0625,10.90625 2.14302,4.411 2.43174,4.63615 5.46875,4.03125 1.76357,-0.35125 4.88191,-1.48471 6.9375,-2.5 l 3.75,-1.84375 3.625,4.4375 3.625,4.4375 -2.9375,4.1875 c -4.6785,6.62199 -4.77436,7.57856 -1.125,11.34375 1.77612,1.83249 4.02685,3.34375 5.03125,3.34375 1.00439,0 3.85792,-1.86245 6.3125,-4.125 l 4.4375,-4.09375 4.96875,3.15625 4.9375,3.1875 -1.4375,4.0625 c -0.78862,2.23516 -1.4375,5.50893 -1.4375,7.28125 0,2.80348 0.53896,3.45952 4.09375,5.0625 5.38718,2.42928 6.78259,1.52143 12.46875,-8.09375 0.99717,-1.68619 1.40892,-1.70215 6.5,-0.28125 l 5.4375,1.53125 -0.3125,4.40625 c -0.41695,5.76854 1.12393,9.63171 4.03125,10.1875 5.96109,1.13957 7.73244,0.75075 9.15625,-2.03125 0.77409,-1.5125 1.70537,-4.6625 2.09375,-7 l 0.71875,-4.25 5.90625,0 c 5.60188,0 5.90295,0.13587 6.53125,2.75 0.36352,1.5125 1.51874,4.44791 2.5625,6.53125 1.8099,3.61254 2.08639,3.76351 5.625,3.125 7.1143,-1.28371 7.50434,-1.82692 6.96875,-9.3125 l -0.46875,-6.6875 5.375,-2.125 5.40625,-2.125 2.4375,3.90625 c 1.35311,2.14347 3.58367,4.61293 4.9375,5.5 2.31152,1.51456 2.70437,1.47702 6.5,-0.65625 4.72273,-2.65432 5.12669,-4.95952 2.03125,-11.78125 -1.08792,-2.39757 -2,-4.47632 -2,-4.625 0,-0.14869 2.01931,-1.89911 4.46875,-3.90625 l 4.4375,-3.65625 4.625,3.53125 c 2.54269,1.94088 5.43661,3.53125 6.4375,3.53125 1.0009,0 3.22486,-1.61191 4.9375,-3.5625 3.57701,-4.07399 3.3098,-5.38352 -2.46875,-11.4375 l -3.375,-3.53125 3.09375,-4.71875 c 1.69662,-2.60821 3.37134,-4.758 3.71875,-4.75 0.34741,0.008 2.425,0.67618 4.625,1.46875 7.15409,2.57736 8.82159,2.10125 11.40625,-3.21875 l 2.3125,-4.71875 -3.78125,-3.28125 c -2.07378,-1.79265 -4.24789,-3.27325 -4.84375,-3.28125 -3.30439,-0.0467 -3.75878,-1.58499 -2.09375,-7.3125 l 1.65625,-5.65625 5.71875,0 c 7.81581,0 9.33263,-1.27402 8.9375,-7.53125 -0.30543,-4.83664 -0.41738,-4.99261 -4.3125,-6.1875 -2.2,-0.67488 -5.1407,-1.47467 -6.5625,-1.75 -2.39936,-0.46464 -2.61529,-0.9102 -2.8125,-6.375 -0.21128,-5.85502 -0.20372,-5.87801 2.90625,-6.5 1.72007,-0.34402 4.72564,-1.39636 6.65625,-2.3125 3.44861,-1.63647 3.48414,-1.73729 2.8125,-6.25 -1.02371,-6.87831 -1.80973,-7.42327 -9.59375,-6.65625 l -6.65625,0.65625 -0.65625,-3.5625 c -0.36615,-1.95178 -1.09993,-3.53125 -1.625,-3.53125 -2.07928,0 -0.80785,-4.04849 1.78125,-5.65625 7.8394,-4.86803 8.8425,-7.59348 4.71875,-13 -3.03101,-3.97386 -4.32018,-4.09136 -11.09375,-0.9375 l -5.15625,2.40625 -3.09375,-4.3125 c -3.54393,-4.93484 -3.71,-5.7543 -1.53125,-7.5625 0.8652,-0.71805 2.45817,-3.08534 3.5625,-5.25 l 2.03125,-3.9375 -3.28125,-3.375 c -1.80243,-1.85963 -4.18704,-3.375 -5.28125,-3.375 -1.09421,0 -4.08683,1.77094 -6.65625,3.9375 l -4.6875,3.9375 -3.875,-2.59375 c -5.63737,-3.73534 -5.56656,-3.58881 -3.90625,-7.5625 0.83762,-2.00471 1.5,-5.21081 1.5,-7.09375 0,-3.06359 -0.40245,-3.5918 -4,-5.03125 -2.21113,-0.88472 -4.49725,-1.59375 -5.0625,-1.59375 -1.41703,0 -5.5858,4.91684 -7,8.25 -1.3317,3.1387 -1.78186,3.21481 -7.9375,1.375 l -4.5,-1.34375 -0.0937,-6.21875 c -0.0649,-3.4143 -0.60023,-6.66273 -1.15625,-7.21875 -1.03546,-1.03546 -4.30992,-1.64077 -7.03125,-1.625 z m 4.65625,34.78125 c 3.96829,0 13.36659,3.40929 20.53125,7.4375 6.62973,3.72744 17.59375,13.57494 17.59375,15.8125 0,2.01088 -4.91329,6.08688 -12.5,10.34375 -1.1,0.6172 -6.78305,3.85928 -12.65625,7.21875 -12.89135,7.37386 -15.25739,8.13273 -16.75,5.34375 -1.42514,-2.66288 -1.48198,-41.56642 -0.0625,-44.21875 0.64619,-1.20742 2.09076,-1.9375 3.84375,-1.9375 z m -26.46875,0.5625 c 2.96663,-0.008 3.10116,0.47242 3.84375,3.9375 0.4715,2.2 0.72609,12.44778 0.5625,22.78125 -0.24355,15.38443 -0.58424,18.97492 -1.8125,19.75 -0.825,0.52061 -1.94225,0.9295 -2.5,0.9375 -1.00802,0.0152 -23.96192,-12.93059 -32.84375,-18.53125 -2.55602,-1.61177 -4.92523,-3.76629 -5.25,-4.78125 -0.88234,-2.75748 4.15951,-8.37655 12.8125,-14.28125 8.85012,-6.03924 17.54295,-9.63531 23.71875,-9.78125 0.54949,-0.013 1.04495,-0.0301 1.46875,-0.0312 z m 73.21875,41.4375 c 4.54869,0 6.88575,8.17935 6.84375,24 -0.0339,12.74616 -1.29332,19.66831 -4.0625,22.4375 -0.84976,0.84975 -2.09079,1.5625 -2.75,1.5625 -1.24357,0 -31.0655,-16.7661 -35.90625,-20.1875 -1.5125,-1.06902 -2.75,-2.7874 -2.75,-3.8125 0,-1.0251 1.2375,-2.74963 2.75,-3.8125 5.05321,-3.55103 34.62323,-20.1875 35.875,-20.1875 z m -121.125,0.4375 c 5.01658,0.25456 37.99737,19.38937 39.09375,22.84375 0.89042,2.80546 -0.4488,3.81156 -20.875,15.46875 -8.91055,5.08524 -16.72678,9.248 -17.375,9.25 -1.87153,0.007 -4.05927,-2.67965 -5.5,-6.75 -2.11897,-5.98655 -1.81272,-29.55627 0.46875,-35.46875 1.06772,-2.76703 2.6486,-4.94309 3.8125,-5.3125 0.10163,-0.0323 0.21317,-0.0395 0.375,-0.0312 z m 61.03125,12.96875 c 1.80098,0.0285 3.65812,0.55777 5.46875,1.78125 6.56237,4.43435 6.61133,13.13905 0.0937,17.53125 -5.16301,3.47935 -10.04077,2.67264 -13.9375,-2.28125 -5.87533,-7.46928 0.57076,-17.15473 8.375,-17.03125 z m 11.375,28.8125 c 0.12654,-0.0144 0.25876,-0.007 0.40625,0 0.39331,0.018 0.88501,0.10605 1.46875,0.25 3.58188,0.88332 33.03505,18.00927 36.0625,20.96875 2.21855,2.16874 2.26118,2.44856 0.8125,5.25 -3.02627,5.85216 -17.20367,15.62512 -27.9375,19.25 -7.72679,2.60937 -11.33993,2.64295 -12.6875,0.125 -1.35205,-2.52625 -1.3492,-40.04508 0,-43.59375 0.56869,-1.49575 0.98925,-2.149 1.875,-2.25 z m -23.625,0.4375 c 2.12448,-0.18158 2.77803,1.13776 3.25,3.65625 0.32914,1.7565 0.45382,11.86028 0.28125,22.46875 -0.25728,15.81656 -0.58248,19.47381 -1.8125,20.25 -4.48571,2.83067 -16.93307,-1.64059 -29.625,-10.625 -6.56406,-4.64659 -11.375,-9.68599 -11.375,-11.9375 0,-2.40766 3.89583,-5.1819 21.15625,-15.03125 10.24477,-5.84599 15.39352,-8.54779 18.125,-8.78125 z"
     style="fill:#e8dfc7;fill-opacity:1" />
</svg>
